<svg width="18" height="20" viewBox="0 0 18 20" fill="none" xmlns="http://www.w3.org/2000/svg">
<path d="M9.62501 0.425049V2.9438L12.1413 1.4913L12.7663 2.5738L9.62501 4.38692V8.71692L13.375 6.55192V2.92505H14.625V5.83005L16.8063 4.5713L17.4313 5.6538L15.25 6.91317L17.7663 8.3663L17.1413 9.4488L14 7.63442L10.25 9.79942L14 11.965L17.1413 10.1513L17.7663 11.2338L15.25 12.6863L17.4313 13.9463L16.8063 15.0288L14.625 13.7694V16.675H13.375V13.0475L9.62501 10.8819V15.2125L12.7663 17.0263L12.1413 18.1088L9.62501 16.6563V19.175H8.37501V16.6557L5.85876 18.1088L5.23376 17.0263L8.37501 15.2125V10.8819L4.62501 13.0469V16.675H3.37501V13.7688L1.19376 15.0288L0.568765 13.9463L2.74939 12.6863L0.233765 11.2338L0.858765 10.1513L3.99939 11.9644L7.74939 9.79942L3.99939 7.63442L0.858765 9.4488L0.233765 8.3663L2.75001 6.91255L0.568765 5.6538L1.19376 4.5713L3.37501 5.83005V2.92505H4.62501V6.55192L8.37501 8.71692V4.38692L5.23376 2.5738L5.85876 1.4913L8.37501 2.9438V0.425049H9.62501Z" fill="#222222"/>
</svg>
