<svg width="17" height="20" viewBox="0 0 17 20" fill="none" xmlns="http://www.w3.org/2000/svg">
<path d="M9.08331 1.75C9.44987 1.24328 9.92374 0.823699 10.4711 0.521199C11.0185 0.218699 11.6259 0.0407339 12.25 0C12.3044 0.56793 12.2439 1.141 12.0721 1.68505C11.9003 2.22909 11.6207 2.73298 11.25 3.16667C10.9114 3.6382 10.4584 4.01571 9.93347 4.26357C9.40858 4.51143 8.8292 4.62148 8.24998 4.58333C8.18987 4.07925 8.23273 3.5682 8.37598 3.08118C8.51922 2.59415 8.75986 2.14127 9.08331 1.75ZM4.91665 4.83333C2.58331 4.83333 0.083313 6.91667 0.083313 10.9167C0.083313 15 2.99998 20 5.33331 20C6.16665 20 7.41665 19.1667 8.66665 19.1667C9.91665 19.1667 10.8333 19.9167 12 19.9167C14.5833 19.9167 16.4166 14.5833 16.4166 14.5833C15.6203 14.2397 14.9428 13.6693 14.4686 12.9431C13.9944 12.217 13.7445 11.3673 13.75 10.5C13.7505 9.73981 13.9509 8.99313 14.3312 8.33491C14.7115 7.67669 15.2583 7.13009 15.9166 6.75C15.4894 6.1094 14.905 5.58913 14.2193 5.23896C13.5335 4.88879 12.7694 4.72043 12 4.75C10.3333 4.75 9.08331 5.66667 8.41665 5.66667C7.66665 5.66667 6.41665 4.83333 4.91665 4.83333Z" fill="#222222"/>
</svg>
