<svg width="14" height="14" viewBox="0 0 14 14" fill="none" xmlns="http://www.w3.org/2000/svg">
<path fill-rule="evenodd" clip-rule="evenodd" d="M6.60626 0.691229L4.79938 4.57623L0.48563 5.13185C0.402175 5.14228 0.323494 5.17655 0.259011 5.23054C0.194528 5.28454 0.146974 5.35598 0.122046 5.4363C0.0971174 5.51663 0.0958701 5.60244 0.118453 5.68345C0.141037 5.76447 0.186493 5.83726 0.24938 5.8931L3.44313 8.76748L2.58126 13.0769C2.56502 13.1592 2.57284 13.2446 2.60378 13.3226C2.63473 13.4007 2.68748 13.4682 2.75576 13.5171C2.82403 13.566 2.90493 13.5942 2.9888 13.5984C3.07268 13.6026 3.15597 13.5825 3.22876 13.5406L7.00001 11.3531L10.7756 13.5406C10.8484 13.5825 10.9317 13.6026 11.0156 13.5984C11.0995 13.5942 11.1804 13.566 11.2486 13.5171C11.3169 13.4682 11.3697 13.4007 11.4006 13.3226C11.4315 13.2446 11.4394 13.1592 11.4231 13.0769L10.5613 8.76748L13.755 5.8931C13.8166 5.83673 13.8608 5.7639 13.8824 5.68321C13.9039 5.60251 13.9019 5.51734 13.8766 5.43775C13.8513 5.35815 13.8038 5.28746 13.7396 5.23404C13.6754 5.18061 13.5972 5.14667 13.5144 5.13623L9.20063 4.57623L7.39813 0.691229C7.36333 0.614846 7.30729 0.550087 7.2367 0.504676C7.16611 0.459265 7.08394 0.43512 7.00001 0.43512C6.91607 0.43512 6.8339 0.459265 6.76331 0.504676C6.69272 0.550087 6.63668 0.614846 6.60188 0.691229H6.60626Z" fill="#222222"/>
</svg>
