<svg width="102" height="32" viewBox="0 0 102 32" fill="none" xmlns="http://www.w3.org/2000/svg">
<path d="M29.4494 22.7101C29.3059 22.3073 29.1382 21.9176 28.9787 21.5565C28.7331 21.0011 28.4759 20.4446 28.2271 19.9067L28.2074 19.864C25.9885 15.0589 23.6069 10.1881 21.1289 5.38701L21.0237 5.18316C20.7709 4.69289 20.5096 4.18596 20.2414 3.68786C19.9234 3.0575 19.5375 2.4636 19.0906 1.91668C18.5875 1.31651 17.9586 0.833822 17.2483 0.502654C16.538 0.171486 15.7635 -9.83959e-05 14.9795 4.23316e-08C14.1955 9.84805e-05 13.4211 0.171877 12.7108 0.503224C12.0006 0.834571 11.3718 1.31742 10.8689 1.91771C10.4225 2.46476 10.0368 3.05853 9.71871 3.68858C9.4482 4.19115 9.18444 4.70278 8.92939 5.19757L8.83171 5.38696C6.3536 10.1884 3.97202 15.0592 1.75314 19.8639L1.72081 19.9338C1.47633 20.463 1.22356 21.0102 0.982061 21.5563C0.822478 21.9171 0.654997 22.3065 0.511343 22.7103C0.0998946 23.8104 -0.0312157 24.9953 0.129798 26.1585C0.30055 27.334 0.775996 28.4447 1.50905 29.3804C2.2421 30.3161 3.20733 31.0444 4.30913 31.4932C5.14134 31.8299 6.03117 32.002 6.92915 32C7.21123 31.9999 7.49307 31.9835 7.77326 31.9509C8.90899 31.8062 10.0043 31.4366 10.9951 30.8639C12.2947 30.1338 13.5782 29.0638 14.9803 27.5348C16.3824 29.0638 17.6659 30.1338 18.9655 30.8639C19.9562 31.4367 21.0516 31.8062 22.1873 31.9509C22.4675 31.9835 22.7494 31.9999 23.0315 32C23.9294 32.002 24.8191 31.8299 25.6513 31.4932C26.7531 31.0444 27.7184 30.3161 28.4515 29.3804C29.1846 28.4447 29.6601 27.3341 29.8309 26.1585C29.9917 24.9952 29.8606 23.8103 29.4494 22.7101ZM14.9803 24.377C13.2446 22.1769 12.1308 20.1338 11.74 18.421C11.5799 17.7792 11.5421 17.1131 11.6286 16.4573C11.6969 15.9766 11.8735 15.5176 12.1451 15.1148C12.4793 14.6814 12.9088 14.3304 13.4004 14.0889C13.892 13.8475 14.4326 13.7219 14.9805 13.7219C15.5285 13.722 16.069 13.8476 16.5606 14.0892C17.0522 14.3307 17.4816 14.6817 17.8158 15.1151C18.0874 15.5181 18.264 15.9771 18.3323 16.4579C18.4186 17.114 18.3807 17.7803 18.2203 18.4223C17.8291 20.1349 16.7156 22.1774 14.9803 24.377ZM27.8036 25.8689C27.6842 26.6908 27.3517 27.4674 26.8392 28.1216C26.3266 28.7759 25.6517 29.2852 24.8813 29.599C24.1023 29.9111 23.2569 30.0217 22.4237 29.9205C21.5576 29.8089 20.7229 29.5239 19.9699 29.0824C18.8131 28.4325 17.6421 27.4348 16.3244 25.9712C18.4221 23.3846 19.732 21.0005 20.217 18.877C20.4353 17.984 20.4826 17.0579 20.3565 16.1475C20.2421 15.3632 19.9509 14.615 19.5049 13.9593C18.9824 13.2519 18.3008 12.6768 17.515 12.2805C16.7291 11.8842 15.861 11.6777 14.9805 11.6777C14.1001 11.6777 13.2319 11.8841 12.446 12.2803C11.6601 12.6765 10.9785 13.2515 10.456 13.9589C10.0101 14.6144 9.7189 15.3624 9.60439 16.1465C9.47823 17.0566 9.52529 17.9822 9.7431 18.8749C10.2278 20.9993 11.5378 23.384 13.6362 25.9714C12.3185 27.4348 11.1475 28.4325 9.99068 29.0825C9.23767 29.5239 8.40306 29.809 7.53694 29.9205C6.70364 30.0217 5.85824 29.9111 5.07919 29.599C4.3088 29.2852 3.63391 28.7759 3.12137 28.1217C2.60884 27.4674 2.27644 26.6908 2.1571 25.8689C2.04231 25.0334 2.14 24.1825 2.44117 23.3946C2.55565 23.0728 2.68962 22.757 2.85559 22.3818C3.09039 21.851 3.33956 21.3115 3.58058 20.7898L3.61295 20.7197C5.81942 15.9419 8.1878 11.0982 10.6524 6.32294L10.7505 6.13283C11.0014 5.64601 11.2609 5.14267 11.5227 4.6563C11.7731 4.15501 12.0762 3.68171 12.4269 3.2444C12.7376 2.86903 13.1276 2.56681 13.5689 2.35934C14.0103 2.15186 14.4921 2.04426 14.9799 2.04422C15.4677 2.04418 15.9496 2.15171 16.3909 2.35911C16.8323 2.56651 17.2223 2.86867 17.5331 3.24399C17.884 3.68097 18.1872 4.15411 18.4374 4.65538C18.6968 5.13742 18.954 5.63623 19.2028 6.11858L19.3082 6.32315C21.7727 11.0979 24.141 15.9415 26.3477 20.7201L26.3676 20.7631C26.6128 21.2936 26.8663 21.8419 27.105 22.382C27.2712 22.7577 27.4054 23.0738 27.5196 23.3944C27.8206 24.1824 27.9183 25.0333 27.8036 25.8689Z" fill="#69A0EE"/>
<path d="M41.4593 24.7287C40.6602 24.7287 39.9251 24.5685 39.2538 24.2482C38.5826 23.9279 38.0073 23.4794 37.4958 22.9028C36.9844 22.3263 36.6009 21.6536 36.3132 20.9169C36.0255 20.1481 35.8976 19.3153 35.8976 18.4184C35.8976 17.5215 36.0575 16.6566 36.3451 15.8878C36.6328 15.1191 37.0483 14.4464 37.5598 13.8378C38.0712 13.2612 38.6785 12.7807 39.3817 12.4604C40.0849 12.1401 40.8201 11.9799 41.6511 11.9799C42.4502 11.9799 43.1534 12.1401 43.7927 12.4924C44.432 12.8128 44.9434 13.2932 45.3589 13.9018L45.4548 12.3323H48.3955V24.4083H45.4548L45.3589 22.6466C44.9434 23.2872 44.4 23.7997 43.6968 24.1841C43.0575 24.5365 42.2904 24.7287 41.4593 24.7287ZM42.2265 21.8458C42.8018 21.8458 43.3132 21.6856 43.7927 21.3973C44.2402 21.077 44.5918 20.6606 44.8795 20.1481C45.1352 19.6356 45.263 19.027 45.263 18.3543C45.263 17.6816 45.1352 17.073 44.8795 16.5605C44.6238 16.048 44.2402 15.6316 43.7927 15.3113C43.3452 14.9909 42.8018 14.8628 42.2265 14.8628C41.6511 14.8628 41.1397 15.023 40.6602 15.3113C40.2128 15.6316 39.8612 16.048 39.5735 16.5605C39.3178 17.073 39.1899 17.6816 39.1899 18.3543C39.1899 19.027 39.3178 19.6356 39.5735 20.1481C39.8292 20.6606 40.2128 21.077 40.6602 21.3973C41.1397 21.6856 41.6511 21.8458 42.2265 21.8458ZM53.4138 9.06503C53.4138 9.41738 53.3499 9.73771 53.19 9.99396C53.0302 10.2502 52.8065 10.4744 52.5188 10.6346C52.2311 10.7947 51.9115 10.8588 51.5919 10.8588C51.2722 10.8588 50.9526 10.7947 50.6649 10.6346C50.3772 10.4744 50.1535 10.2502 49.9937 9.99396C49.8338 9.70567 49.7699 9.41738 49.7699 9.06503C49.7699 8.71268 49.8338 8.39236 49.9937 8.1361C50.1535 7.84781 50.3772 7.65562 50.6649 7.49546C50.9526 7.3353 51.2722 7.27124 51.5919 7.27124C51.9115 7.27124 52.2311 7.3353 52.5188 7.49546C52.8065 7.65562 53.0302 7.87985 53.19 8.1361C53.3179 8.39236 53.4138 8.68065 53.4138 9.06503ZM49.9937 24.3763V12.3002H53.19V24.3763H49.9937ZM61.7244 15.4714V15.5034C61.5646 15.4394 61.3728 15.4073 61.2129 15.3753C61.0212 15.3433 60.8613 15.3433 60.6696 15.3433C59.7746 15.3433 59.1033 15.5995 58.6558 16.1441C58.1764 16.6886 57.9526 17.4574 57.9526 18.4504V24.3763H54.7563V12.3002H57.6969L57.7928 14.1261C58.1125 13.4854 58.496 13.0049 59.0394 12.6526C59.5508 12.3002 60.1581 12.1401 60.8613 12.1401C61.0851 12.1401 61.3088 12.1721 61.5006 12.2041C61.5965 12.2362 61.6604 12.2362 61.7244 12.2682V15.4714ZM63.0029 24.3763V7.3353H66.1993V13.8378C66.6468 13.2612 67.1582 12.8127 67.7975 12.4604C68.4368 12.1401 69.14 11.9479 69.9391 11.9479C70.7381 11.9479 71.4733 12.108 72.1445 12.4284C72.8158 12.7487 73.3911 13.1971 73.9026 13.7737C74.414 14.3503 74.7975 15.023 75.0852 15.7597C75.3729 16.5285 75.5007 17.3613 75.5007 18.2582C75.5007 19.1551 75.3409 20.02 75.0533 20.7887C74.7656 21.5575 74.3501 22.2302 73.8386 22.8388C73.3272 23.4154 72.7199 23.8958 72.0167 24.2162C71.3135 24.5365 70.5783 24.6966 69.7473 24.6966C68.9482 24.6966 68.245 24.5365 67.6057 24.1841C66.9664 23.8638 66.455 23.3833 66.0395 22.7747L65.9436 24.3443L63.0029 24.3763ZM69.1719 21.8458C69.7473 21.8458 70.2587 21.6856 70.7381 21.3973C71.1856 21.077 71.5372 20.6606 71.8249 20.1481C72.0806 19.6356 72.2085 19.027 72.2085 18.3543C72.2085 17.6816 72.0806 17.073 71.8249 16.5605C71.5372 16.048 71.1856 15.6316 70.7381 15.3113C70.2907 14.9909 69.7473 14.8628 69.1719 14.8628C68.5966 14.8628 68.0852 15.023 67.6057 15.3113C67.1582 15.6316 66.8066 16.048 66.5189 16.5605C66.2632 17.073 66.1354 17.6816 66.1354 18.3543C66.1354 19.027 66.2632 19.6356 66.5189 20.1481C66.7746 20.6606 67.1582 21.077 67.6057 21.3973C68.0852 21.6856 68.5966 21.8458 69.1719 21.8458ZM76.7154 24.3763V12.3002H79.656L79.7519 13.8698C80.1035 13.2932 80.583 12.8448 81.1903 12.4924C81.7976 12.1401 82.5008 11.9799 83.2999 11.9799C84.1949 11.9799 84.962 12.2041 85.6013 12.6206C86.2725 13.037 86.784 13.6456 87.1356 14.4144C87.4872 15.1831 87.6789 16.112 87.6789 17.1691V24.4083H84.4826V17.5855C84.4826 16.7527 84.2908 16.08 83.9072 15.5995C83.5237 15.1191 83.0122 14.8628 82.341 14.8628C81.8615 14.8628 81.446 14.9589 81.0624 15.1831C80.7108 15.4073 80.4232 15.6956 80.1994 16.1121C79.9757 16.4964 79.8798 16.9769 79.8798 17.4574V24.3763H76.7154ZM89.2771 24.3763V7.3353H92.4735V13.8378C92.921 13.2612 93.4324 12.8127 94.0717 12.4604C94.711 12.1401 95.4142 11.9479 96.2133 11.9479C97.0124 11.9479 97.7475 12.108 98.4188 12.4284C99.09 12.7487 99.6653 13.1971 100.177 13.7737C100.689 14.3503 101.072 15.023 101.36 15.7597C101.648 16.5285 101.775 17.3613 101.775 18.2582C101.775 19.1551 101.616 20.02 101.328 20.7887C101.04 21.5575 100.625 22.2302 100.113 22.8388C99.6014 23.4154 98.9941 23.8958 98.2909 24.2162C97.5877 24.5365 96.8525 24.6966 96.0215 24.6966C95.2224 24.6966 94.5192 24.5365 93.8799 24.1841C93.2406 23.8638 92.7292 23.3833 92.3137 22.7747L92.2178 24.3443L89.2771 24.3763ZM95.4781 21.8458C96.0534 21.8458 96.5649 21.6856 97.0443 21.3973C97.4918 21.077 97.8434 20.6606 98.1311 20.1481C98.3868 19.6356 98.5147 19.027 98.5147 18.3543C98.5147 17.6816 98.3868 17.073 98.1311 16.5605C97.8754 16.048 97.4918 15.6316 97.0443 15.3113C96.5968 14.9909 96.0534 14.8628 95.4781 14.8628C94.9027 14.8628 94.3913 15.023 93.9119 15.3113C93.4644 15.6316 93.1128 16.048 92.8251 16.5605C92.5374 17.073 92.4415 17.6816 92.4415 18.3543C92.4415 19.027 92.5694 19.6356 92.8251 20.1481C93.0808 20.6606 93.4644 21.077 93.9119 21.3973C94.3913 21.6856 94.8708 21.8458 95.4781 21.8458Z" fill="#69A0EE"/>
</svg>
