<svg width="20" height="20" viewBox="0 0 20 20" fill="none" xmlns="http://www.w3.org/2000/svg">
<path d="M1.25 19.1751C1.08424 19.1751 0.92527 19.1092 0.80806 18.992C0.690849 18.8748 0.625001 18.7158 0.625001 18.5501C0.623954 17.1117 1.17396 15.7276 2.16196 14.6822C3.14996 13.6369 4.50089 13.0097 5.93703 12.9297C7.37317 12.8497 8.78541 13.3228 9.88344 14.2519C10.9815 15.1811 11.6819 16.4955 11.8406 17.9251H13.125C13.585 17.9251 14.0175 17.7595 14.3569 17.4632C14.5431 17.3014 14.6953 17.1043 14.805 16.8833C14.9146 16.6623 14.9794 16.4218 14.9956 16.1757L15 16.0501V8.55008H8.125V12.3001H6.875V7.92508C6.87502 7.77199 6.93122 7.62424 7.03295 7.50985C7.13467 7.39545 7.27485 7.32236 7.42688 7.30445L7.5 7.30008H15.625C15.7781 7.3001 15.9258 7.3563 16.0402 7.45802C16.1546 7.55975 16.2277 7.69992 16.2456 7.85195L16.25 7.92508V9.17508H18.75C18.9031 9.1751 19.0508 9.2313 19.1652 9.33302C19.2796 9.43475 19.3527 9.57492 19.3706 9.72695L19.375 9.80008V15.4251C19.375 15.5782 19.3188 15.7259 19.2171 15.8403C19.1153 15.9547 18.9752 16.0278 18.8231 16.0457L18.75 16.0501H16.25C16.2504 16.4964 16.1549 16.9376 15.9701 17.3439C15.7853 17.7502 15.5154 18.1121 15.1788 18.4051C14.6524 18.8653 13.9864 19.135 13.2881 19.1707L13.125 19.1751H1.25ZM3.65625 15.027C2.79783 15.6586 2.19937 16.5817 1.97313 17.6232L1.93688 17.8113L1.91938 17.9251H4.48375L3.65625 15.027ZM6.25 14.1751C5.73563 14.1751 5.2425 14.2638 4.78375 14.427L5.78375 17.9251H6.71563L7.71563 14.4263C7.34213 14.2938 6.95228 14.2128 6.55688 14.1857L6.40063 14.1776L6.25 14.1751ZM8.84438 15.027L8.01563 17.9251H10.58L10.5631 17.8113C10.372 16.6958 9.75592 15.6978 8.84438 15.027V15.027ZM18.125 10.4251H16.25V14.8001H18.125V10.4251ZM12.4963 0.425078C12.495 1.71383 12.2019 2.51508 11.3931 3.81508L10.9225 4.55445C10.3813 5.42383 10.1238 5.99258 10.0363 6.67508H8.77688C8.87063 5.66695 9.21938 4.90258 9.97063 3.72008L10.3225 3.17008C11.02 2.05008 11.2456 1.42945 11.2463 0.423828L12.4963 0.425078ZM15.6213 0.425078C15.62 1.71383 15.3269 2.51508 14.5181 3.81508L14.0475 4.55445C13.5063 5.42383 13.2488 5.99258 13.1613 6.67508H11.9019C11.9956 5.66695 12.3444 4.90258 13.0956 3.72008L13.4475 3.17008C14.145 2.05008 14.3706 1.42945 14.3713 0.423828L15.6213 0.425078Z" fill="#222222"/>
</svg>
