<svg width="18" height="20" viewBox="0 0 18 20" fill="none" xmlns="http://www.w3.org/2000/svg">
<path d="M15 17.2532C15.7425 17.2532 16.4625 17.5157 17.0025 18.0032C17.2275 18.2207 17.535 18.3407 17.8575 18.3782H18V19.8782H17.8275C17.1497 19.8446 16.5039 19.5799 15.9975 19.1282C15.7228 18.8841 15.3674 18.7505 15 18.7532C14.625 18.7532 14.265 18.8807 14.0025 19.1282C13.4505 19.6169 12.7372 19.8841 12 19.8782C11.2628 19.8841 10.5495 19.6169 9.9975 19.1282C9.72285 18.8841 9.36744 18.7505 9 18.7532C8.625 18.7532 8.265 18.8807 8.0025 19.1282C7.45052 19.6169 6.73721 19.8841 6 19.8782C5.26279 19.8841 4.54948 19.6169 3.9975 19.1282C3.72285 18.8841 3.36744 18.7505 3 18.7532C2.625 18.7532 2.265 18.8807 2.0025 19.1282C1.4961 19.5799 0.850269 19.8446 0.1725 19.8782H0V18.3782H0.1425C0.460816 18.35 0.761124 18.2182 0.9975 18.0032C1.54948 17.5145 2.26279 17.2473 3 17.2532C3.7425 17.2532 4.4625 17.5157 5.0025 18.0032C5.265 18.2507 5.625 18.3782 6 18.3782C6.375 18.3782 6.735 18.2507 6.9975 18.0032C7.54911 17.5139 8.26266 17.2466 9 17.2532C9.7425 17.2532 10.4625 17.5157 11.0025 18.0032C11.265 18.2507 11.625 18.3782 12 18.3782C12.375 18.3782 12.735 18.2507 12.9975 18.0032C13.5495 17.5145 14.2628 17.2473 15 17.2532ZM15 13.5032C15.7425 13.5032 16.4625 13.7657 17.0025 14.2532C17.2275 14.4707 17.535 14.5907 17.8575 14.6282H18V16.1282H17.8275C17.1497 16.0946 16.5039 15.8299 15.9975 15.3782C15.7228 15.1341 15.3674 15.0005 15 15.0032C14.625 15.0032 14.265 15.1307 14.0025 15.3782C13.4505 15.8669 12.7372 16.1341 12 16.1282C11.2628 16.1341 10.5495 15.8669 9.9975 15.3782C9.72285 15.1341 9.36744 15.0005 9 15.0032C8.625 15.0032 8.265 15.1307 8.0025 15.3782C7.45052 15.8669 6.73721 16.1341 6 16.1282C5.26279 16.1341 4.54948 15.8669 3.9975 15.3782C3.72285 15.1341 3.36744 15.0005 3 15.0032C2.625 15.0032 2.265 15.1307 2.0025 15.3782C1.4961 15.8299 0.850269 16.0946 0.1725 16.1282H0V14.6282H0.1425C0.460816 14.6 0.761124 14.4682 0.9975 14.2532C1.54948 13.7645 2.26279 13.4973 3 13.5032C3.7425 13.5032 4.4625 13.7657 5.0025 14.2532C5.265 14.5007 5.625 14.6282 6 14.6282C6.375 14.6282 6.735 14.5007 6.9975 14.2532C7.54911 13.7639 8.26266 13.4966 9 13.5032C9.7425 13.5032 10.4625 13.7657 11.0025 14.2532C11.265 14.5007 11.625 14.6282 12 14.6282C12.375 14.6282 12.735 14.5007 12.9975 14.2532C13.5495 13.7645 14.2628 13.4973 15 13.5032ZM12 0.00318909C12.7703 0.0022256 13.5115 0.297624 14.07 0.828188C14.6285 1.35875 14.9615 2.08382 15 2.85319V4.50319H18V6.00319H15V9.75319C15.68 9.74946 16.3412 9.97689 16.875 10.3982L17.0025 10.5107C17.2275 10.7132 17.535 10.8407 17.8575 10.8707L18 10.8782V12.3782H17.8275C17.1497 12.3446 16.5039 12.0799 15.9975 11.6282C15.7228 11.3841 15.3674 11.2505 15 11.2532C14.625 11.2532 14.265 11.3807 14.0025 11.6282C13.4505 12.1169 12.7372 12.3841 12 12.3782C11.2628 12.3841 10.5495 12.1169 9.9975 11.6282C9.72285 11.3841 9.36744 11.2505 9 11.2532C8.625 11.2532 8.265 11.3807 8.0025 11.6282C7.45052 12.1169 6.73721 12.3841 6 12.3782C5.26279 12.3841 4.54948 12.1169 3.9975 11.6282C3.72285 11.3841 3.36744 11.2505 3 11.2532C2.625 11.2532 2.265 11.3807 2.0025 11.6282C1.4961 12.0799 0.850269 12.3446 0.1725 12.3782H0V10.8782H0.1425C0.460816 10.85 0.761124 10.7182 0.9975 10.5032C1.54948 10.0145 2.26279 9.74732 3 9.75319C3.7425 9.75319 4.4625 10.0157 5.0025 10.5032C5.265 10.7507 5.625 10.8782 6 10.8782C6.375 10.8782 6.735 10.7507 6.9975 10.5032C7.5039 10.0515 8.14973 9.78678 8.8275 9.75319H9V6.00319H0V4.50319H9V3.00319C9.00739 2.80621 8.9759 2.6097 8.90734 2.42488C8.83879 2.24007 8.7345 2.07056 8.60044 1.92605C8.32968 1.6342 7.95407 1.46186 7.55625 1.44694C7.35927 1.43955 7.16276 1.47104 6.97794 1.53959C6.79313 1.60815 6.62363 1.71244 6.47911 1.8465C6.18726 2.11726 6.01492 2.49286 6 2.89069V3.00319H4.5C4.49935 2.39355 4.68445 1.79819 5.03065 1.29639C5.37684 0.794584 5.8677 0.410163 6.43785 0.194321C7.008 -0.0215205 7.63037 -0.058538 8.22208 0.0881987C8.8138 0.234935 9.34676 0.558462 9.75 1.01569C10.0312 0.696294 10.3774 0.440715 10.7655 0.266088C11.1536 0.0914615 11.5745 0.00182488 12 0.00318909ZM10.5 10.1432L10.845 10.3757L11.0025 10.5107C11.265 10.7432 11.625 10.8782 12 10.8782C12.3229 10.8825 12.6385 10.7826 12.9 10.5932L12.9975 10.5107C13.1475 10.3682 13.32 10.2482 13.5 10.1432V6.00319H10.5V10.1432ZM12 1.50319C11.6209 1.50212 11.2555 1.64462 10.9772 1.90203C10.6989 2.15945 10.5284 2.51268 10.5 2.89069V4.50319H13.5V3.00319C13.5 2.60536 13.342 2.22383 13.0607 1.94253C12.7794 1.66122 12.3978 1.50319 12 1.50319Z" fill="#222222"/>
</svg>
