<svg width="20" height="20" viewBox="0 0 20 20" fill="none" xmlns="http://www.w3.org/2000/svg">
<path d="M8.75 16.6751L8.74687 16.8001C8.71596 17.4185 8.45665 18.0034 8.01916 18.4416C7.58166 18.8798 6.99713 19.14 6.37875 19.1719L6.25 19.1751H2.5V17.9251H6.25L6.34375 17.9219C6.64136 17.8996 6.92114 17.7715 7.13252 17.5608C7.3439 17.3501 7.47292 17.0707 7.49625 16.7732L7.5 16.6751H8.75ZM6.25 0.425051C6.585 0.425051 6.91687 0.454426 7.2375 0.511301L7.475 0.559426L18.38 2.83443C18.6438 2.88941 18.8827 3.02815 19.0612 3.22998C19.2398 3.4318 19.3483 3.68591 19.3706 3.95443L19.375 4.05818V8.04193C19.375 8.31135 19.2879 8.57355 19.1267 8.78945C18.9655 9.00535 18.7389 9.1634 18.4806 9.24005L18.3806 9.26505L9.90937 11.0313L11.0137 15.0976C11.0616 15.2739 11.0702 15.4586 11.039 15.6386C11.0078 15.8186 10.9375 15.9896 10.833 16.1396C10.7285 16.2895 10.5925 16.4147 10.4344 16.5063C10.2764 16.598 10.1001 16.6539 9.91813 16.6701L9.8075 16.6751H7.35C7.09359 16.675 6.84338 16.5962 6.6333 16.4492C6.42323 16.3021 6.26345 16.0941 6.17562 15.8532L6.14563 15.7594L4.97062 11.5288C3.62531 11.2159 2.44216 10.4189 1.64663 9.28981C0.8511 8.16069 0.498819 6.77834 0.656918 5.4062C0.815016 4.03405 1.47244 2.76804 2.50391 1.84942C3.53538 0.930807 4.86878 0.423811 6.25 0.425051V0.425051ZM9.8075 15.4251L8.68312 11.2869L7.55437 11.5232C7.21321 11.604 6.86524 11.6528 6.515 11.6688L6.30813 11.6738L7.35 15.4251H9.8075ZM6.25 1.67505C5.64069 1.67532 5.03815 1.80285 4.48099 2.04949C3.92383 2.29612 3.42433 2.65642 3.01449 3.1073C2.60465 3.55818 2.29351 4.08969 2.101 4.66779C1.90849 5.24589 1.83886 5.85783 1.89657 6.4644C1.95428 7.07097 2.13805 7.6588 2.43611 8.19023C2.73417 8.72165 3.13996 9.18496 3.62746 9.55047C4.11497 9.91598 4.67345 10.1756 5.26712 10.3128C5.86079 10.4499 6.47657 10.4616 7.075 10.3469L7.28187 10.3032L18.125 8.04193V4.05818L7.21125 1.78068C6.8957 1.71019 6.57333 1.67477 6.25 1.67505V1.67505ZM6.25 2.92505C7.0788 2.92505 7.87366 3.25429 8.45971 3.84034C9.04576 4.42639 9.375 5.22125 9.375 6.05005C9.375 6.87885 9.04576 7.67371 8.45971 8.25976C7.87366 8.84581 7.0788 9.17505 6.25 9.17505C5.4212 9.17505 4.62634 8.84581 4.04029 8.25976C3.45424 7.67371 3.125 6.87885 3.125 6.05005C3.125 5.22125 3.45424 4.42639 4.04029 3.84034C4.62634 3.25429 5.4212 2.92505 6.25 2.92505V2.92505ZM6.25 4.17505C5.75272 4.17505 5.27581 4.3726 4.92417 4.72423C4.57254 5.07586 4.375 5.55277 4.375 6.05005C4.375 6.54733 4.57254 7.02425 4.92417 7.37588C5.27581 7.72751 5.75272 7.92505 6.25 7.92505C6.74728 7.92505 7.22419 7.72751 7.57583 7.37588C7.92746 7.02425 8.125 6.54733 8.125 6.05005C8.125 5.55277 7.92746 5.07586 7.57583 4.72423C7.22419 4.3726 6.74728 4.17505 6.25 4.17505Z" fill="#222222"/>
</svg>
