<svg width="24" height="23" viewBox="0 0 24 23" fill="none" xmlns="http://www.w3.org/2000/svg">
<path d="M11.995 0.25C13.4724 0.25 14.9353 0.54099 16.3002 1.10636C17.6651 1.67172 18.9053 2.50039 19.9499 3.54505C20.9946 4.58971 21.8233 5.8299 22.3886 7.19481C22.954 8.55972 23.245 10.0226 23.245 11.5C23.245 12.9774 22.954 14.4403 22.3886 15.8052C21.8233 17.1701 20.9946 18.4103 19.9499 19.455C18.9053 20.4996 17.6651 21.3283 16.3002 21.8936C14.9353 22.459 13.4724 22.75 11.995 22.75C9.01131 22.75 6.14983 21.5647 4.04004 19.455C1.93026 17.3452 0.744995 14.4837 0.744995 11.5C0.744995 8.51631 1.93026 5.65483 4.04004 3.54505C6.14983 1.43526 9.01131 0.25 11.995 0.25ZM11.995 6.25C11.1343 6.25101 10.3001 6.54809 9.63246 7.09138C8.96485 7.63466 8.50445 8.39107 8.32855 9.23364C8.15265 10.0762 8.27195 10.9536 8.66643 11.7187C9.06092 12.4837 9.70656 13.0897 10.495 13.435V15.01L10.3825 15.0325C8.26369 15.4542 6.39484 16.6903 5.1775 18.475C6.93999 20.1925 9.34 21.25 11.995 21.25C14.65 21.25 17.05 20.1925 18.8125 18.475C17.5969 16.6919 15.7311 15.4561 13.615 15.0325L13.495 15.01V13.435C14.1373 13.1556 14.6885 12.7019 15.0862 12.1253C15.4839 11.5486 15.7121 10.8722 15.745 10.1725V10C15.745 9.00544 15.3499 8.05161 14.6466 7.34835C13.9434 6.64509 12.9896 6.25 11.995 6.25ZM11.995 1.75C10.1881 1.74963 8.41666 2.25136 6.87834 3.19922C5.34003 4.14707 4.09536 5.50375 3.28326 7.11785C2.47115 8.73196 2.12355 10.54 2.27924 12.3401C2.43494 14.1403 3.08781 15.8618 4.16499 17.3125C5.22896 15.8777 6.6661 14.7622 8.32 14.0875L8.58249 13.99L8.5675 13.975C8.02101 13.505 7.57717 12.9275 7.26362 12.2784C6.95007 11.6294 6.77353 10.9227 6.745 10.2025V10C6.74576 9.12934 6.96305 8.27253 7.3773 7.50673C7.79155 6.74092 8.38975 6.09017 9.11805 5.61305C9.84635 5.13594 10.6819 4.84745 11.5494 4.77355C12.4169 4.69965 13.2892 4.84267 14.0877 5.18973C14.8862 5.53678 15.5859 6.07698 16.1237 6.76169C16.6615 7.44639 17.0206 8.2541 17.1686 9.11209C17.3166 9.97008 17.2489 10.8514 16.9716 11.6767C16.6943 12.5021 16.2161 13.2455 15.58 13.84L15.4075 13.99L15.4375 14.005C17.185 14.665 18.7075 15.8125 19.825 17.305C20.9 15.8543 21.5511 14.1335 21.7057 12.3346C21.8602 10.5356 21.5122 8.72898 20.7003 7.11617C19.8885 5.50335 18.6447 4.14766 17.1076 3.20018C15.5706 2.2527 13.8006 1.75066 11.995 1.75Z" fill="#B0B0B0"/>
</svg>
