<svg width="24" height="21" viewBox="0 0 24 21" fill="none" xmlns="http://www.w3.org/2000/svg">
<path d="M17.265 0.249944C15.6885 0.307627 14.1927 0.961699 13.08 2.07994L12 3.15994L10.92 2.07994C10.3407 1.49694 9.6519 1.03425 8.89312 0.718513C8.13434 0.402779 7.3206 0.240234 6.49875 0.240234C5.6769 0.240234 4.86317 0.402779 4.10439 0.718513C3.3456 1.03425 2.65676 1.49694 2.0775 2.07994C1.49547 2.6602 1.03409 3.34996 0.720003 4.10944C0.405913 4.86892 0.245325 5.68308 0.247504 6.50494C0.247504 10.1949 2.115 13.1349 6.2775 16.5774L6.8025 17.0124L7.365 17.4474L7.9425 17.8974L8.2425 18.1224L8.8575 18.5724L9.5025 19.0374L10.17 19.5099L10.86 19.9899L12 20.7624L12.9975 20.0874L13.7925 19.5399L14.2875 19.1949L14.8125 18.8199L15.45 18.3549C21 14.2674 23.7525 10.7649 23.7525 6.50494C23.7565 5.68241 23.5974 4.86725 23.2845 4.10657C22.9715 3.34588 22.5109 2.65476 21.9293 2.07313C21.3477 1.49151 20.6566 1.03092 19.8959 0.717984C19.1352 0.405048 18.32 0.245971 17.4975 0.249944H17.265ZM17.4975 1.74994C18.1221 1.74697 18.7412 1.86768 19.3189 2.10512C19.8967 2.34256 20.4217 2.69203 20.8638 3.13337C21.3058 3.57471 21.6561 4.09919 21.8944 4.67657C22.1328 5.25395 22.2545 5.87281 22.2525 6.49744C22.2525 9.72244 20.2875 12.5874 16.245 15.8574L15.705 16.2849L15.1425 16.7199L14.55 17.1549L13.9425 17.6049L13.4175 17.9724L12.93 18.3099L12 18.9474L11.73 18.7674L11.055 18.2949L10.4025 17.8449L10.0875 17.6124L9.48001 17.1624L9.18 16.9449L8.61 16.5099L8.055 16.0824C3.675 12.6324 1.755 9.84994 1.755 6.49744C1.75203 5.87379 1.87255 5.25572 2.10961 4.67888C2.34667 4.10203 2.69559 3.57782 3.13623 3.13648C3.57687 2.69514 4.10053 2.3454 4.677 2.10743C5.25347 1.86945 5.87135 1.74796 6.495 1.74994C7.7475 1.74994 8.9475 2.23744 9.85501 3.13744L12 5.28244L14.145 3.13744C14.5851 2.69701 15.1077 2.34774 15.683 2.10965C16.2583 1.87156 16.8749 1.74932 17.4975 1.74994Z" fill="#222222"/>
</svg>
