<svg width="24" height="23" viewBox="0 0 24 23" fill="none" xmlns="http://www.w3.org/2000/svg">
<path d="M19.5 0.500002C20.4666 0.499066 21.3963 0.871425 22.095 1.53939C22.7937 2.20735 23.2075 3.11931 23.25 4.085V14.75C23.2509 15.7166 22.8786 16.6463 22.2106 17.345C21.5427 18.0437 20.6307 18.4575 19.665 18.5H15.12L12 22.31L8.88 18.5H4.5C3.56265 18.4999 2.65932 18.1487 1.968 17.5157C1.27667 16.8827 0.847489 16.0137 0.765002 15.08L0.750002 14.915V14.75V4.25C0.749066 3.28338 1.12142 2.35373 1.78939 1.65502C2.45735 0.956319 3.36931 0.542533 4.335 0.500002H19.5ZM19.5 2H4.5C3.92593 1.99897 3.37318 2.2174 2.9549 2.61059C2.53662 3.00377 2.28445 3.54197 2.25 4.115V14.75C2.24897 15.3241 2.4674 15.8768 2.86059 16.2951C3.25377 16.7134 3.79197 16.9656 4.365 17H9.6L12 19.94L14.4 17H19.5C20.0741 17.001 20.6268 16.7826 21.0451 16.3894C21.4634 15.9962 21.7156 15.458 21.75 14.885V4.25C21.751 3.67593 21.5326 3.12318 21.1394 2.7049C20.7462 2.28662 20.208 2.03444 19.635 2H19.5ZM12 3.5C13.594 3.50398 15.1212 4.14048 16.2462 5.2697C17.3712 6.39893 18.002 7.92852 18 9.5225C17.9948 11.0805 17.3838 12.5753 16.2962 13.6909C15.2087 14.8064 13.7298 15.4552 12.1725 15.5H11.985C10.427 15.4968 8.93133 14.8877 7.81437 13.8015C6.6974 12.7154 6.04674 11.2373 6 9.68V9.4925C6.00199 7.9025 6.63501 6.37831 7.76001 5.25471C8.88501 4.13111 10.41 3.5 12 3.5ZM13.26 10.25H10.7325C10.815 11.3375 11.055 12.32 11.325 13.01L11.3925 13.175L11.49 13.4C11.6625 13.7375 11.8275 13.955 11.955 14H12C12.2475 14 12.6375 13.295 12.9225 12.245L13.005 11.915C13.125 11.4125 13.2225 10.85 13.26 10.25ZM16.44 10.25H14.7675C14.6925 11.45 14.4525 12.59 14.0775 13.49C14.6661 13.184 15.1797 12.7517 15.5817 12.224C15.9836 11.6963 16.2639 11.0862 16.4025 10.4375L16.44 10.25ZM9.2325 10.25H7.56C7.67572 10.9352 7.94856 11.5843 8.35714 12.1465C8.76572 12.7086 9.29894 13.1685 9.915 13.49C9.54 12.59 9.3 11.4575 9.2325 10.25ZM9.9225 5.51L9.825 5.5625C9.232 5.88919 8.72035 6.34548 8.32819 6.89737C7.93602 7.44927 7.67344 8.08253 7.56 8.75H9.2325C9.3075 7.5425 9.5475 6.41 9.915 5.51H9.9225ZM12 5H11.9625C11.76 5.06 11.4825 5.525 11.235 6.2375L11.1375 6.5375C10.9236 7.25836 10.7878 8.00012 10.7325 8.75H13.26C13.1175 6.755 12.435 5.1125 12.0375 5H12ZM14.085 5.5175L14.1 5.555C14.46 6.4475 14.7 7.565 14.775 8.75H16.4325C16.322 8.09702 16.0692 7.47633 15.692 6.93196C15.3149 6.38759 14.8225 5.93285 14.25 5.6L14.085 5.51V5.5175Z" fill="#222222"/>
</svg>
