<svg width="24" height="22" viewBox="0 0 24 22" fill="none" xmlns="http://www.w3.org/2000/svg">
<path d="M23.6025 6.58995L12.3525 0.589953C12.244 0.532173 12.1229 0.501953 12 0.501953C11.8771 0.501953 11.756 0.532173 11.6475 0.589953L0.397493 6.58995C0.278429 6.65422 0.178967 6.74949 0.109645 6.86568C0.0403232 6.98187 0.00372314 7.11465 0.00372314 7.24995C0.00372314 7.38525 0.0403232 7.51803 0.109645 7.63422C0.178967 7.75042 0.278429 7.84569 0.397493 7.90995L2.99999 9.29745V16.25C2.99962 16.3849 3.03566 16.5174 3.10429 16.6335C3.17293 16.7497 3.27163 16.8452 3.38999 16.91L11.64 21.41C11.7504 21.4703 11.8742 21.502 12 21.502C12.1258 21.502 12.2496 21.4703 12.36 21.41L20.61 16.91C20.7284 16.8452 20.8271 16.7497 20.8957 16.6335C20.9643 16.5174 21.0004 16.3849 21 16.25V9.29745L22.5 8.50245V16.25H24V7.24995C23.9996 7.11428 23.9625 6.98124 23.8925 6.86501C23.8225 6.74878 23.7223 6.65372 23.6025 6.58995ZM19.5 15.8L12 19.8875L4.49999 15.8V10.1L11.6475 13.91C11.756 13.9677 11.8771 13.998 12 13.998C12.1229 13.998 12.244 13.9677 12.3525 13.91L19.5 10.1V15.8ZM12 12.395L2.33999 7.24995L12 2.09745L21.66 7.24995L12 12.4025V12.395Z" fill="#222222"/>
</svg>
