<svg width="18" height="24" viewBox="0 0 18 24" fill="none" xmlns="http://www.w3.org/2000/svg">
<path d="M9 0C13.425 0 17.25 3.96 17.25 8.25C17.25 11.8875 14.8275 15.2025 10.0875 18.21L11.7375 20.4C11.8301 20.5257 11.8861 20.6746 11.8995 20.8301C11.9128 20.9857 11.8829 21.1419 11.8131 21.2815C11.7433 21.4212 11.6362 21.5388 11.5038 21.6215C11.3713 21.7042 11.2186 21.7486 11.0625 21.75H9.75V24H8.25V21.75H6.9375C6.78138 21.7486 6.62867 21.7042 6.49622 21.6215C6.36377 21.5388 6.25673 21.4212 6.18691 21.2815C6.11709 21.1419 6.08719 20.9857 6.10053 20.8301C6.11387 20.6746 6.16992 20.5257 6.2625 20.4L7.8675 18.255C3.15 15.69 0.75 12.345 0.75 8.25C0.75 6.06196 1.61919 3.96354 3.16637 2.41637C4.71354 0.869194 6.81196 0 9 0ZM9 19.2525L8.25 20.25H9.75L9 19.2525ZM9 1.5C7.20979 1.5 5.4929 2.21116 4.22703 3.47703C2.96116 4.7429 2.25 6.45979 2.25 8.25C2.25 11.7 4.29 14.5725 8.475 16.875L8.76 17.0325L8.97 17.1375L9.195 16.995C13.41 14.3475 15.555 11.565 15.735 8.655L15.75 8.4525V8.25C15.75 4.77 12.5925 1.5 9 1.5Z" fill="#222222"/>
</svg>
