<svg width="18" height="20" viewBox="0 0 18 20" fill="none" xmlns="http://www.w3.org/2000/svg">
<path d="M15 17.3001C15.741 17.3001 16.4588 17.5633 17.0033 18.0568C17.2328 18.2638 17.5357 18.3906 17.8597 18.4191L18 18.4251V19.9251L17.829 19.9205C17.1502 19.8868 16.5034 19.6213 15.9967 19.1683C15.7214 18.9267 15.3663 18.7955 15 18.8001C14.6235 18.8001 14.2665 18.9313 14.004 19.1683C13.4531 19.6596 12.7396 19.9293 12.0015 19.9251C11.2628 19.9296 10.5488 19.66 9.9975 19.1683C9.72192 18.9265 9.36658 18.7953 9 18.8001C8.62275 18.8001 8.265 18.9313 8.00325 19.1683C7.45235 19.6596 6.73888 19.9292 6.00075 19.9251C5.2622 19.9298 4.54815 19.6604 3.99675 19.1691C3.72148 18.9272 3.36642 18.7957 3 18.8001C2.62275 18.8001 2.265 18.9313 2.0025 19.1683C1.49601 19.6212 0.849572 19.8867 0.171 19.9205L0 19.9251V18.4251L0.14025 18.4191C0.457519 18.3945 0.758179 18.2674 0.99675 18.0568C1.54773 17.5652 2.26157 17.2955 3 17.3001C3.741 17.3001 4.45875 17.5641 5.00325 18.0568C5.26575 18.2938 5.62275 18.4243 6.00075 18.4251C6.37725 18.4251 6.735 18.2938 6.99675 18.056C7.54781 17.5646 8.26166 17.2952 9 17.3001C9.741 17.3001 10.4588 17.5633 11.0033 18.0568C11.2658 18.2938 11.6227 18.4243 12.0007 18.4251C12.3772 18.4251 12.735 18.2938 12.9967 18.0568C13.5475 17.5653 14.2611 17.2957 14.9993 17.3001H15ZM15 13.5501C15.741 13.5501 16.4588 13.8133 17.0033 14.3068C17.2328 14.5138 17.5357 14.6406 17.8597 14.6691L18 14.6751V16.1751L17.829 16.1705C17.1502 16.1368 16.5034 15.8713 15.9967 15.4183C15.7214 15.1767 15.3663 15.0455 15 15.0501C14.6235 15.0501 14.2665 15.1813 14.004 15.4183C13.4531 15.9096 12.7396 16.1793 12.0015 16.1751C11.2628 16.1796 10.5488 15.91 9.9975 15.4183C9.72192 15.1765 9.36658 15.0453 9 15.0501C8.62275 15.0501 8.265 15.1813 8.00325 15.4183C7.45235 15.9096 6.73888 16.1792 6.00075 16.1751C5.2622 16.1798 4.54815 15.9104 3.99675 15.4191C3.72148 15.1772 3.36642 15.0457 3 15.0501C2.62275 15.0501 2.265 15.1813 2.0025 15.4183C1.49601 15.8712 0.849572 16.1367 0.171 16.1705L0 16.1751V14.6751L0.14025 14.6691C0.457519 14.6445 0.758179 14.5174 0.99675 14.3068C1.54773 13.8152 2.26157 13.5455 3 13.5501C3.741 13.5501 4.45875 13.8141 5.00325 14.3068C5.26575 14.5438 5.62275 14.6743 6.00075 14.6751C6.37725 14.6751 6.735 14.5438 6.99675 14.3061C7.54781 13.8146 8.26166 13.5452 9 13.5501C9.741 13.5501 10.4588 13.8133 11.0033 14.3068C11.2658 14.5438 11.6227 14.6743 12.0007 14.6751C12.3772 14.6751 12.735 14.5438 12.9967 14.3068C13.5475 13.8153 14.2611 13.5457 14.9993 13.5501H15ZM12 0.0500523C12.7697 0.0500517 13.5099 0.345879 14.0676 0.876345C14.6253 1.40681 14.9578 2.13133 14.9963 2.90005L15 3.05005V4.55005H18V6.05005H15V9.80005C15.684 9.80005 16.3485 10.0251 16.875 10.4466L17.0033 10.5568C17.2328 10.7638 17.5357 10.8906 17.8597 10.9191L18 10.9251V12.4251L17.829 12.4206C17.1502 12.3868 16.5034 12.1213 15.9967 11.6683C15.7214 11.4267 15.3663 11.2955 15 11.3001C14.6235 11.3001 14.2665 11.4313 14.004 11.6683C13.4531 12.1596 12.7396 12.4293 12.0015 12.4251C11.2628 12.4296 10.5488 12.16 9.9975 11.6683C9.72192 11.4265 9.36658 11.2953 9 11.3001C8.62275 11.3001 8.265 11.4313 8.00325 11.6683C7.45235 12.1596 6.73888 12.4292 6.00075 12.4251C5.2622 12.4298 4.54815 12.1604 3.99675 11.6691C3.72148 11.4272 3.36642 11.2957 3 11.3001C2.62275 11.3001 2.265 11.4313 2.0025 11.6683C1.49601 12.1212 0.849572 12.3867 0.171 12.4206L0 12.4251V10.9251L0.14025 10.9191C0.457519 10.8945 0.758179 10.7674 0.99675 10.5568C1.54773 10.0652 2.26157 9.7955 3 9.80005C3.741 9.80005 4.45875 10.0641 5.00325 10.5568C5.26575 10.7938 5.62275 10.9243 6.00075 10.9251C6.37725 10.9251 6.735 10.7938 6.99675 10.5561C7.50361 10.1029 8.1507 9.83765 8.82975 9.80455L9 9.80005V6.05005H0V4.55005H9V3.05005C9.00174 2.66081 8.85211 2.28614 8.58272 2.00519C8.31332 1.72423 7.94526 1.559 7.5563 1.5444C7.16733 1.52979 6.78792 1.66696 6.49821 1.92692C6.20851 2.18688 6.0312 2.54928 6.00375 2.93755L6 3.05005H4.5C4.50011 2.44074 4.68576 1.8459 5.03225 1.34469C5.37873 0.843472 5.86962 0.459645 6.4396 0.244273C7.00959 0.0289009 7.63164 -0.00780489 8.223 0.139039C8.81435 0.285883 9.34698 0.609315 9.75 1.0663C10.031 0.746414 10.3771 0.49026 10.7652 0.314995C11.1532 0.13973 11.5742 0.049399 12 0.0500523V0.0500523ZM10.5 10.1923C10.62 10.2606 10.7347 10.3378 10.8442 10.4226L11.0033 10.5568C11.2658 10.7938 11.6227 10.9243 12.0007 10.9251C12.33 10.9251 12.6457 10.8246 12.894 10.6401L12.9967 10.5568C13.1512 10.4166 13.32 10.2943 13.4993 10.1923V6.05005H10.4993L10.5 10.1923ZM12 1.55005C11.6216 1.54993 11.2571 1.69286 10.9796 1.95017C10.7021 2.20749 10.5321 2.56019 10.5037 2.93755L10.5 3.05005V4.55005H13.5V3.05005C13.5 2.65223 13.342 2.2707 13.0607 1.98939C12.7794 1.70809 12.3978 1.55005 12 1.55005V1.55005Z" fill="#222222"/>
</svg>
