<svg width="22" height="21" viewBox="0 0 22 21" fill="none" xmlns="http://www.w3.org/2000/svg">
<path d="M16.25 0.500006C16.6291 0.498938 16.9945 0.641439 17.2728 0.898851C17.5511 1.15626 17.7216 1.50949 17.75 1.88751V3.14001L21.5 1.64001V10.61L17.75 9.11001V10.25C17.7511 10.6291 17.6086 10.9945 17.3512 11.2728C17.0937 11.5511 16.7405 11.7216 16.3625 11.75H11.675C11.5265 12.4815 11.1632 13.152 10.6314 13.6758C10.0996 14.1995 9.42365 14.5527 8.69001 14.69C8.53481 15.5234 8.10183 16.2796 7.46166 16.8353C6.8215 17.3911 6.01194 17.7135 5.16501 17.75H2.00001V20.75H0.500006V13.25H2.00001V16.25H5.00001C5.48269 16.2498 5.95252 16.0944 6.34011 15.8068C6.72771 15.5191 7.01253 15.1144 7.15251 14.6525C6.45271 14.4903 5.81422 14.1306 5.31297 13.616C4.81172 13.1015 4.46881 12.4538 4.32501 11.75H2.00001C1.62093 11.7511 1.2555 11.6086 0.977219 11.3512C0.698936 11.0937 0.528436 10.7405 0.500006 10.3625V2.00001C0.498938 1.62093 0.641439 1.2555 0.898851 0.977219C1.15626 0.698936 1.50949 0.528436 1.88751 0.500006H2.00001H16.25ZM8.00001 8.75001C7.40327 8.75001 6.83097 8.98706 6.40902 9.40902C5.98706 9.83097 5.75001 10.4033 5.75001 11C5.75001 11.5967 5.98706 12.169 6.40902 12.591C6.83097 13.013 7.40327 13.25 8.00001 13.25C8.59674 13.25 9.16904 13.013 9.591 12.591C10.013 12.169 10.25 11.5967 10.25 11C10.25 10.4033 10.013 9.83097 9.591 9.40902C9.16904 8.98706 8.59674 8.75001 8.00001 8.75001ZM16.25 2.00001H2.00001V10.25H4.32501C4.49714 9.40229 4.95705 8.64015 5.62681 8.09272C6.29657 7.54529 7.13499 7.24625 8.00001 7.24625C8.86502 7.24625 9.70344 7.54529 10.3732 8.09272C11.043 8.64015 11.5029 9.40229 11.675 10.25H16.25V2.00001ZM20 3.86001L17.75 4.76001V7.49001L20 8.39001V3.86001ZM4.25001 3.50001C4.44892 3.50001 4.63968 3.57902 4.78034 3.71968C4.92099 3.86033 5.00001 4.05109 5.00001 4.25001C5.00001 4.44892 4.92099 4.63968 4.78034 4.78034C4.63968 4.92099 4.44892 5.00001 4.25001 5.00001C4.05109 5.00001 3.86033 4.92099 3.71968 4.78034C3.57902 4.63968 3.50001 4.44892 3.50001 4.25001C3.50001 4.05109 3.57902 3.86033 3.71968 3.71968C3.86033 3.57902 4.05109 3.50001 4.25001 3.50001Z" fill="#222222"/>
</svg>
