<svg width="14" height="16" viewBox="0 0 14 16" fill="none" xmlns="http://www.w3.org/2000/svg">
<path d="M7 0.52649C7.38097 0.526226 7.75696 0.613032 8.09925 0.780279C8.44154 0.947526 8.74109 1.19079 8.975 1.49149L9 1.52649H11.5C12.1444 1.52587 12.7642 1.77411 13.23 2.21941C13.6958 2.66472 13.9716 3.2727 14 3.91649V13.0265C14 13.6895 13.7366 14.3254 13.2678 14.7943C12.7989 15.2631 12.163 15.5265 11.5 15.5265H2.5C1.83696 15.5265 1.20107 15.2631 0.732233 14.7943C0.263392 14.3254 0 13.6895 0 13.0265V4.02649C0 3.36345 0.263392 2.72756 0.732233 2.25872C1.20107 1.78988 1.83696 1.52649 2.5 1.52649H5L5.025 1.49149C5.24675 1.20564 5.52789 0.97132 5.84902 0.804713C6.17015 0.638106 6.52361 0.54318 6.885 0.52649H7ZM7.75 5.52649H6.25V7.77649H4V9.27649H6.25V11.5265H7.75V9.27649H10V7.77649H7.75V5.52649ZM7 2.02649C6.80109 2.02649 6.61032 2.10551 6.46967 2.24616C6.32902 2.38681 6.25 2.57758 6.25 2.77649C6.25 2.9754 6.32902 3.16617 6.46967 3.30682C6.61032 3.44747 6.80109 3.52649 7 3.52649C7.19891 3.52649 7.38968 3.44747 7.53033 3.30682C7.67098 3.16617 7.75 2.9754 7.75 2.77649C7.75 2.57758 7.67098 2.38681 7.53033 2.24616C7.38968 2.10551 7.19891 2.02649 7 2.02649Z" fill="#222222"/>
</svg>
