<svg width="24" height="24" viewBox="0 0 24 24" fill="none" xmlns="http://www.w3.org/2000/svg">
<path d="M12 0.75C13.4774 0.75 14.9403 1.04099 16.3052 1.60636C17.6701 2.17172 18.9103 3.00039 19.955 4.04505C20.9996 5.08971 21.8283 6.3299 22.3936 7.69481C22.959 9.05972 23.25 10.5226 23.25 12C23.25 13.4774 22.959 14.9403 22.3936 16.3052C21.8283 17.6701 20.9996 18.9103 19.955 19.955C18.9103 20.9996 17.6701 21.8283 16.3052 22.3936C14.9403 22.959 13.4774 23.25 12 23.25C9.01631 23.25 6.15483 22.0647 4.04505 19.955C1.93526 17.8452 0.75 14.9837 0.75 12C0.75 9.01631 1.93526 6.15483 4.04505 4.04505C6.15483 1.93526 9.01631 0.75 12 0.75ZM12 6.75C11.1393 6.75101 10.3051 7.04809 9.63747 7.59138C8.96986 8.13466 8.50946 8.89107 8.33355 9.73364C8.15765 10.5762 8.27696 11.4536 8.67144 12.2187C9.06592 12.9837 9.71157 13.5897 10.5 13.935V15.51L10.3875 15.5325C8.26869 15.9542 6.39984 17.1903 5.1825 18.975C6.945 20.6925 9.345 21.75 12 21.75C14.655 21.75 17.055 20.6925 18.8175 18.975C17.6019 17.1919 15.7361 15.9561 13.62 15.5325L13.5 15.51V13.935C14.1423 13.6556 14.6935 13.2019 15.0912 12.6253C15.4889 12.0486 15.7171 11.3722 15.75 10.6725V10.5C15.75 9.50544 15.3549 8.55161 14.6517 7.84835C13.9484 7.14509 12.9946 6.75 12 6.75ZM12 2.25C10.1931 2.24963 8.42166 2.75136 6.88335 3.69922C5.34503 4.64707 4.10037 6.00375 3.28826 7.61785C2.47615 9.23196 2.12855 11.04 2.28425 12.8401C2.43995 14.6403 3.09282 16.3618 4.17 17.8125C5.23397 16.3777 6.67111 15.2622 8.325 14.5875L8.5875 14.49L8.5725 14.475C8.02602 14.005 7.58217 13.4275 7.26862 12.7784C6.95507 12.1294 6.77853 11.4227 6.75 10.7025V10.5C6.75076 9.62934 6.96805 8.77253 7.3823 8.00673C7.79655 7.24092 8.39476 6.59017 9.12306 6.11305C9.85135 5.63594 10.6869 5.34745 11.5544 5.27355C12.4219 5.19965 13.2942 5.34267 14.0927 5.68973C14.8912 6.03678 15.5909 6.57698 16.1287 7.26169C16.6665 7.94639 17.0256 8.7541 17.1736 9.61209C17.3216 10.4701 17.2539 11.3514 16.9766 12.1767C16.6993 13.0021 16.2211 13.7455 15.585 14.34L15.4125 14.49L15.4425 14.505C17.19 15.165 18.7125 16.3125 19.83 17.805C20.905 16.3543 21.5561 14.6335 21.7107 12.8346C21.8652 11.0356 21.5172 9.22898 20.7053 7.61617C19.8935 6.00335 18.6497 4.64766 17.1127 3.70018C15.5756 2.7527 13.8056 2.25066 12 2.25Z" fill="#222222"/>
</svg>
