<svg width="30" height="30" viewBox="0 0 30 30" fill="none" xmlns="http://www.w3.org/2000/svg">
<path d="M20 27.1465V29.1465H10V27.1465H20ZM18 23.1465V25.1465H12V23.1465H18ZM28 0.146484V3.14648H30V5.14648H28V20.1465C28.0018 20.3922 27.913 20.6299 27.7507 20.8143C27.5884 20.9988 27.3639 21.117 27.12 21.1465H3C2.75432 21.1483 2.51659 21.0595 2.33215 20.8972C2.14771 20.7349 2.02948 20.5104 2 20.2665V5.14648H0V3.14648H26V0.146484H28ZM26 5.14648H4V19.1465H11V11.1465C10.9982 10.9008 11.087 10.6631 11.2493 10.4786C11.4116 10.2942 11.6361 10.176 11.88 10.1465H18C18.2457 10.1447 18.4834 10.2334 18.6679 10.3957C18.8523 10.5581 18.9705 10.7826 19 11.0265V19.1465H26V5.14648ZM17 12.1465H13V19.1465H17V12.1465ZM23 7.14648C23.2652 7.14648 23.5196 7.25184 23.7071 7.43938C23.8946 7.62691 24 7.88127 24 8.14648C24 8.4117 23.8946 8.66605 23.7071 8.85359C23.5196 9.04113 23.2652 9.14648 23 9.14648C22.7348 9.14648 22.4804 9.04113 22.2929 8.85359C22.1054 8.66605 22 8.4117 22 8.14648C22 7.88127 22.1054 7.62691 22.2929 7.43938C22.4804 7.25184 22.7348 7.14648 23 7.14648Z" fill="#222222"/>
</svg>
