<svg width="16" height="18" viewBox="0 0 16 18" fill="none" xmlns="http://www.w3.org/2000/svg">
<path d="M13 15.0501C13.6175 15.0501 14.2156 15.2694 14.6694 15.6807C14.8606 15.8532 15.1131 15.9588 15.3831 15.9826L15.5 15.9876V17.2376L15.3575 17.2338C14.7918 17.2057 14.2529 16.9844 13.8306 16.6069C13.6011 16.4056 13.3053 16.2963 13 16.3001C12.6863 16.3001 12.3888 16.4094 12.17 16.6069C11.7109 17.0164 11.1164 17.2411 10.5013 17.2376C9.8857 17.2414 9.29063 17.0167 8.83125 16.6069C8.6016 16.4054 8.30548 16.2961 8 16.3001C7.68562 16.3001 7.3875 16.4094 7.16937 16.6069C6.71029 17.0163 6.11573 17.241 5.50063 17.2376C4.88517 17.2415 4.29013 17.017 3.83063 16.6076C3.60123 16.406 3.30535 16.2964 3 16.3001C2.68562 16.3001 2.3875 16.4094 2.16875 16.6069C1.74668 16.9843 1.20798 17.2056 0.6425 17.2338L0.5 17.2376V15.9876L0.616875 15.9826C0.881266 15.9621 1.13182 15.8562 1.33062 15.6807C1.78978 15.271 2.38464 15.0463 3 15.0501C3.6175 15.0501 4.21562 15.2701 4.66937 15.6807C4.88812 15.8782 5.18563 15.9869 5.50063 15.9876C5.81438 15.9876 6.1125 15.8782 6.33063 15.6801C6.78984 15.2705 7.38472 15.046 8 15.0501C8.6175 15.0501 9.21562 15.2694 9.66937 15.6807C9.88812 15.8782 10.1856 15.9869 10.5006 15.9876C10.8144 15.9876 11.1125 15.8782 11.3306 15.6807C11.7896 15.2711 12.3842 15.0464 12.9994 15.0501H13ZM13 11.9251C13.6175 11.9251 14.2156 12.1444 14.6694 12.5557C14.8606 12.7282 15.1131 12.8338 15.3831 12.8576L15.5 12.8626V14.1126L15.3575 14.1088C14.7918 14.0807 14.2529 13.8594 13.8306 13.4819C13.6011 13.2806 13.3053 13.1713 13 13.1751C12.6863 13.1751 12.3888 13.2844 12.17 13.4819C11.7109 13.8914 11.1164 14.1161 10.5013 14.1126C9.8857 14.1164 9.29063 13.8917 8.83125 13.4819C8.6016 13.2804 8.30548 13.1711 8 13.1751C7.68562 13.1751 7.3875 13.2844 7.16937 13.4819C6.71029 13.8913 6.11573 14.116 5.50063 14.1126C4.88517 14.1165 4.29013 13.892 3.83063 13.4826C3.60123 13.281 3.30535 13.1714 3 13.1751C2.68562 13.1751 2.3875 13.2844 2.16875 13.4819C1.74668 13.8593 1.20798 14.0806 0.6425 14.1088L0.5 14.1126V12.8626L0.616875 12.8576C0.881266 12.8371 1.13182 12.7312 1.33062 12.5557C1.78978 12.146 2.38464 11.9213 3 11.9251C3.6175 11.9251 4.21562 12.1451 4.66937 12.5557C4.88812 12.7532 5.18563 12.8619 5.50063 12.8626C5.81438 12.8626 6.1125 12.7532 6.33063 12.5551C6.78984 12.1455 7.38472 11.921 8 11.9251C8.6175 11.9251 9.21562 12.1444 9.66937 12.5557C9.88812 12.7532 10.1856 12.8619 10.5006 12.8626C10.8144 12.8626 11.1125 12.7532 11.3306 12.5557C11.7896 12.1461 12.3842 11.9214 12.9994 11.9251H13ZM10.5 0.675052C11.1414 0.675051 11.7583 0.921574 12.223 1.36363C12.6877 1.80568 12.9648 2.40945 12.9969 3.05005L13 3.17505V4.42505H15.5V5.67505H13V8.80005C13.57 8.80005 14.1237 8.98755 14.5625 9.3388L14.6694 9.43068C14.8606 9.60318 15.1131 9.7088 15.3831 9.73255L15.5 9.73755V10.9876L15.3575 10.9838C14.7918 10.9557 14.2529 10.7344 13.8306 10.3569C13.6011 10.1556 13.3053 10.0463 13 10.0501C12.6863 10.0501 12.3888 10.1594 12.17 10.3569C11.7109 10.7664 11.1164 10.9911 10.5013 10.9876C9.8857 10.9914 9.29063 10.7667 8.83125 10.3569C8.6016 10.1554 8.30548 10.0461 8 10.0501C7.68562 10.0501 7.3875 10.1594 7.16937 10.3569C6.71029 10.7663 6.11573 10.991 5.50063 10.9876C4.88517 10.9915 4.29013 10.767 3.83063 10.3576C3.60123 10.156 3.30535 10.0464 3 10.0501C2.68562 10.0501 2.3875 10.1594 2.16875 10.3569C1.74668 10.7343 1.20798 10.9556 0.6425 10.9838L0.5 10.9876V9.73755L0.616875 9.73255C0.881266 9.71213 1.13182 9.60616 1.33062 9.43068C1.78978 9.02098 2.38464 8.79626 3 8.80005C3.6175 8.80005 4.21562 9.02005 4.66937 9.43068C4.88812 9.62818 5.18563 9.73693 5.50063 9.73755C5.81438 9.73755 6.1125 9.62818 6.33063 9.43005C6.753 9.05246 7.29225 8.83138 7.85812 8.8038L8 8.80005V5.67505H0.5V4.42505H8V3.17505C8.00145 2.85069 7.87676 2.53846 7.65226 2.30433C7.42777 2.0702 7.12105 1.93251 6.79691 1.92034C6.47277 1.90817 6.1566 2.02247 5.91518 2.23911C5.67376 2.45574 5.526 2.75774 5.50313 3.0813L5.5 3.17505H4.25C4.2501 2.66729 4.4048 2.17159 4.69354 1.75391C4.98228 1.33624 5.39135 1.01638 5.86634 0.836902C6.34132 0.657426 6.8597 0.626837 7.3525 0.749208C7.84529 0.871578 8.28915 1.1411 8.625 1.52193C8.85917 1.25535 9.1476 1.04189 9.47097 0.895837C9.79434 0.749783 10.1452 0.674507 10.5 0.675052V0.675052ZM9.25 9.12693C9.35 9.1838 9.44562 9.24818 9.53687 9.3188L9.66937 9.43068C9.88812 9.62818 10.1856 9.73693 10.5006 9.73755C10.775 9.73755 11.0381 9.6538 11.245 9.50005L11.3306 9.43068C11.4594 9.3138 11.6 9.21193 11.7494 9.12693V5.67505H9.24938L9.25 9.12693ZM10.5 1.92505C10.1846 1.92495 9.8809 2.04406 9.64966 2.25849C9.41842 2.47292 9.27678 2.76683 9.25312 3.0813L9.25 3.17505V4.42505H11.75V3.17505C11.75 2.84353 11.6183 2.52559 11.3839 2.29117C11.1495 2.05675 10.8315 1.92505 10.5 1.92505V1.92505Z" fill="#222222"/>
</svg>
