<svg width="16" height="14" viewBox="0 0 16 14" fill="none" xmlns="http://www.w3.org/2000/svg">
<path d="M11.5 0.396488C11.7527 0.395777 11.9963 0.490777 12.1819 0.662385C12.3674 0.833993 12.4811 1.06948 12.5 1.32149V4.39649H14.5C14.7527 4.39578 14.9963 4.49078 15.1819 4.66238C15.3674 4.83399 15.4811 5.06948 15.5 5.32149V11.3965C15.5007 11.6492 15.4057 11.8928 15.2341 12.0783C15.0625 12.2639 14.827 12.3775 14.575 12.3965H12.5C12.5007 12.6492 12.4057 12.8928 12.2341 13.0783C12.0625 13.2639 11.827 13.3775 11.575 13.3965H4.5C4.24728 13.3972 4.00367 13.3022 3.81815 13.1306C3.63262 12.959 3.51896 12.7235 3.5 12.4715V12.3965H1.5C1.24728 12.3972 1.00367 12.3022 0.818146 12.1306C0.632624 11.959 0.518957 11.7235 0.500004 11.4715V5.39649C0.499292 5.14377 0.594293 4.90015 0.765901 4.71463C0.937508 4.52911 1.173 4.41544 1.425 4.39649H3.5V1.39649C3.49929 1.14377 3.59429 0.900152 3.7659 0.71463C3.93751 0.529108 4.173 0.415441 4.425 0.396488H4.5H11.5ZM12.75 8.39649H3.25V11.1965H4.75V9.89649H11.25V11.1965H12.75V8.39649ZM4 5.39649C3.80109 5.39649 3.61033 5.47551 3.46967 5.61616C3.32902 5.75681 3.25 5.94758 3.25 6.14649C3.25 6.3454 3.32902 6.53617 3.46967 6.67682C3.61033 6.81747 3.80109 6.89649 4 6.89649C4.19892 6.89649 4.38968 6.81747 4.53033 6.67682C4.67099 6.53617 4.75 6.3454 4.75 6.14649C4.75 5.94758 4.67099 5.75681 4.53033 5.61616C4.38968 5.47551 4.19892 5.39649 4 5.39649ZM11.5 2.89649H4.5V4.39649H11.5V2.89649Z" fill="#222222"/>
</svg>
