<svg width="21" height="23" viewBox="0 0 21 23" fill="none" xmlns="http://www.w3.org/2000/svg">
<path d="M11.5006 2L11.7929 2.00259C13.9382 2.04046 16.2117 2.49426 18.6154 3.37103L19.0006 3.515V17.2003L18.9963 17.2653C18.9767 17.415 18.8902 17.5481 18.7614 17.6269L18.7037 17.6572L12.9919 20.1959C13.0231 19.8229 12.9702 19.4487 12.8314 19.0567C12.7067 18.7045 12.4481 18.1664 12.3105 17.8592C11.3558 15.7811 10.331 13.6747 9.26487 11.5986L9.099 11.2801C8.86469 10.8243 8.68656 10.4652 8.44161 10.1775C8.06991 9.74063 7.55818 9.5 7.00054 9.5C6.4428 9.5 5.93098 9.74082 5.55909 10.1779C5.25658 10.5336 5.04377 11.0188 4.7362 11.5985C4.48836 12.0812 4.24277 12.5654 3.99979 13.0506L4.00058 3.5145L4.38513 3.37126C6.78433 2.49608 9.05379 2.04226 11.1955 2.00282L11.5006 2Z" fill="#69A0EE"/>
<path d="M11.5006 0C14.2998 0 17.2593 0.637369 20.378 1.90821C20.7293 2.05142 20.9672 2.37986 20.9973 2.75355L21.0006 2.83427V17.2003C21.0006 18.1502 20.4626 19.0145 19.6186 19.4363L19.5159 19.4848L11.9945 22.8276C11.7638 22.9302 11.0635 22.9915 10.5967 22.9992L10.5006 23L10.501 22.4998C10.8252 22.4963 11.1432 22.4332 11.4402 22.3124C11.8566 22.1429 12.2131 21.8654 12.4798 21.5181L19.1098 18.571C19.6214 18.3436 19.9612 17.8518 19.9974 17.2985L20.0006 17.2003V2.83427L19.6547 2.69574C16.7789 1.56409 14.0611 1 11.5006 1C8.94 1 6.22228 1.56409 3.34642 2.69574L3.00057 2.83428L3.00042 15.0812C2.66008 15.7851 2.32625 16.4888 2 17.1899L2.00057 2.83428C2.00057 2.42772 2.24669 2.06162 2.62319 1.9082C5.74182 0.637368 8.70131 0 11.5006 0Z" fill="#69A0EE"/>
<path d="M6.99995 20.3465L7.34332 19.9039C8.14118 18.8875 8.6393 17.9602 8.82395 17.148C8.96417 16.532 8.93988 15.8896 8.58373 15.3684C8.24368 14.8708 7.65163 14.5737 7.00005 14.5737C6.34837 14.5737 5.75623 14.8707 5.41627 15.3682C5.06132 15.8878 5.03537 16.5283 5.17577 17.1472C5.36024 17.9596 5.85845 18.887 6.65659 19.9039L6.99995 20.3465ZM6.99995 20.3465L7.32234 20.7061C7.8971 21.3361 8.4091 21.7674 8.93372 22.0636C9.3413 22.2937 9.75376 22.4343 10.1598 22.4816C10.6004 22.5332 11.0391 22.4754 11.4397 22.3124C12.2608 21.9782 12.849 21.2236 12.9747 20.343C13.0349 19.9211 12.9879 19.5003 12.8309 19.0567C12.7061 18.7045 12.4475 18.1664 12.3099 17.8592C11.3552 15.7811 10.3304 13.6747 9.26429 11.5986C8.93997 10.9874 8.74041 10.5292 8.44103 10.1775C8.06933 9.74063 7.5576 9.5 6.99995 9.5C6.44222 9.5 5.9304 9.74082 5.55851 10.1779C5.256 10.5336 5.04319 11.0188 4.73562 11.5985C3.66928 13.6752 2.64462 15.7815 1.68997 17.8591C1.54884 18.1744 1.29343 18.7057 1.16913 19.0565C1.01208 19.5001 0.965066 19.9209 1.02533 20.3431C1.15092 21.2236 1.73901 21.9781 2.56016 22.3124C2.96986 22.4791 3.40725 22.5322 3.83995 22.4816C4.24643 22.4342 4.65898 22.2936 5.06619 22.0636C5.5908 21.7675 6.10281 21.3361 6.67757 20.7061L6.99995 20.3465Z" stroke="#222222"/>
</svg>
