<svg width="22" height="23" viewBox="0 0 22 23" fill="none" xmlns="http://www.w3.org/2000/svg">
<path d="M13.5351 20.2499C13.7263 19.7662 14.036 19.3383 14.4357 19.0054C14.8354 18.6725 15.3123 18.4454 15.8226 18.3449C16.2342 18.2652 16.6578 18.2714 17.0669 18.363C17.476 18.4546 17.8618 18.6298 18.2001 18.8774C18.2864 18.9407 18.3853 18.9847 18.4901 19.0066C18.5949 19.0284 18.7031 19.0276 18.8076 19.0042C18.912 18.9807 19.0102 18.9352 19.0956 18.8706C19.181 18.8061 19.2516 18.724 19.3026 18.6299L20.8851 15.8999C20.9411 15.8081 20.9767 15.7053 20.9895 15.5986C21.0023 15.4918 20.992 15.3835 20.9593 15.2811C20.9265 15.1787 20.8722 15.0845 20.7998 15.0049C20.7275 14.9253 20.6389 14.8622 20.5401 14.8199C19.9994 14.577 19.5404 14.1831 19.2184 13.6854C18.8964 13.1878 18.7251 12.6077 18.7251 12.0149C18.7251 11.4222 18.8964 10.8421 19.2184 10.3444C19.5404 9.84677 19.9994 9.45279 20.5401 9.20991C20.6389 9.16758 20.7275 9.10448 20.7998 9.02491C20.8722 8.94533 20.9265 8.85113 20.9593 8.7487C20.992 8.64627 21.0023 8.53801 20.9895 8.43124C20.9767 8.32448 20.9411 8.22171 20.8851 8.12991L19.3026 5.38491C19.2516 5.29082 19.181 5.20874 19.0956 5.14419C19.0102 5.07963 18.912 5.0341 18.8076 5.01066C18.7031 4.98721 18.5949 4.9864 18.4901 5.00826C18.3853 5.03012 18.2864 5.07416 18.2001 5.13741C17.8616 5.38465 17.4758 5.55953 17.0668 5.65115C16.6577 5.74276 16.2342 5.74915 15.8226 5.66991C15.3107 5.56796 14.8327 5.33858 14.4328 5.00299C14.033 4.6674 13.7243 4.23643 13.5351 3.74991C13.3566 3.30529 13.2871 2.82437 13.3326 2.34741C13.3489 2.23992 13.3417 2.13017 13.3113 2.02576C13.281 1.92134 13.2284 1.82477 13.157 1.74273C13.0857 1.66069 12.9974 1.59514 12.8982 1.55062C12.799 1.5061 12.6913 1.48368 12.5826 1.48491H9.43259C9.32388 1.48368 9.2162 1.5061 9.117 1.55062C9.01781 1.59514 8.92949 1.66069 8.85815 1.74273C8.78681 1.82477 8.73415 1.92134 8.70384 2.02576C8.67353 2.13017 8.66628 2.23992 8.68259 2.34741C8.75554 3.11404 8.53888 3.8802 8.07528 4.4951C7.61167 5.11 6.9347 5.5291 6.17759 5.66991C5.76599 5.7496 5.34237 5.74344 4.93327 5.65181C4.52416 5.56018 4.13838 5.38506 3.80009 5.13741C3.71375 5.07416 3.61486 5.03012 3.51008 5.00826C3.4053 4.9864 3.29705 4.98721 3.19261 5.01066C3.08817 5.0341 2.98996 5.07963 2.90458 5.14419C2.8192 5.20874 2.74862 5.29082 2.69759 5.38491L1.11509 8.11491C1.0591 8.20671 1.02349 8.30948 1.0107 8.41624C0.997905 8.52301 1.00822 8.63127 1.04094 8.7337C1.07366 8.83613 1.12802 8.93033 1.20034 9.00991C1.27266 9.08948 1.36125 9.15258 1.46009 9.19491C2.00079 9.43779 2.45977 9.83177 2.78177 10.3294C3.10378 10.8271 3.27509 11.4072 3.27509 11.9999C3.27509 12.5927 3.10378 13.1728 2.78177 13.6704C2.45977 14.1681 2.00079 14.562 1.46009 14.8049C1.36125 14.8472 1.27266 14.9103 1.20034 14.9899C1.12802 15.0695 1.07366 15.1637 1.04094 15.2661C1.00822 15.3685 0.997905 15.4768 1.0107 15.5836C1.02349 15.6903 1.0591 15.7931 1.11509 15.8849L2.69759 18.6149C2.74862 18.709 2.8192 18.7911 2.90458 18.8556C2.98996 18.9202 3.08817 18.9657 3.19261 18.9892C3.29705 19.0126 3.4053 19.0134 3.51008 18.9916C3.61486 18.9697 3.71375 18.9257 3.80009 18.8624C4.13838 18.6148 4.52416 18.4396 4.93327 18.348C5.34237 18.2564 5.76599 18.2502 6.17759 18.3299C6.68137 18.4329 7.1513 18.6605 7.54437 18.992C7.93744 19.3235 8.24111 19.7482 8.42759 20.2274C8.60987 20.6737 8.6819 21.1574 8.63759 21.6374C8.62128 21.7449 8.62853 21.8547 8.65884 21.9591C8.68916 22.0635 8.74181 22.1601 8.81315 22.2421C8.88449 22.3241 8.97281 22.3897 9.07201 22.4342C9.1712 22.4787 9.27888 22.5011 9.38759 22.4999H12.5226C12.6313 22.5011 12.739 22.4787 12.8382 22.4342C12.9374 22.3897 13.0257 22.3241 13.097 22.2421C13.1684 22.1601 13.221 22.0635 13.2513 21.9591C13.2817 21.8547 13.2889 21.7449 13.2726 21.6374C13.2484 21.1606 13.3384 20.6849 13.5351 20.2499ZM8.00009 11.9999C8.00009 11.4066 8.17604 10.8265 8.50569 10.3332C8.83533 9.83985 9.30387 9.45534 9.85204 9.22827C10.4002 9.00121 11.0034 8.9418 11.5854 9.05756C12.1673 9.17331 12.7019 9.45903 13.1214 9.87859C13.541 10.2981 13.8267 10.8327 13.9425 11.4146C14.0582 11.9966 13.9988 12.5998 13.7717 13.148C13.5447 13.6961 13.1602 14.1647 12.6668 14.4943C12.1735 14.824 11.5934 14.9999 11.0001 14.9999C10.2044 14.9999 9.44138 14.6838 8.87877 14.1212C8.31616 13.5586 8.00009 12.7956 8.00009 11.9999Z" stroke="#222222" stroke-width="0.999997"/>
</svg>
