<svg width="17" height="16" viewBox="0 0 17 16" fill="none" xmlns="http://www.w3.org/2000/svg">
<path d="M7 2.71714e-07C8.20042 -0.000346761 9.37748 0.331734 10.4007 0.95943C11.4239 1.58713 12.2534 2.48592 12.797 3.55616C13.3407 4.62641 13.5774 5.8263 13.4808 7.02283C13.3843 8.21936 12.9582 9.36578 12.25 10.335L16.205 14.295L14.795 15.705L10.835 11.75C9.72252 12.5647 8.37887 13.0026 7 13C5.27609 13 3.62279 12.3152 2.40381 11.0962C1.18482 9.87721 0.5 8.22391 0.5 6.5C0.5 4.77609 1.18482 3.12279 2.40381 1.90381C3.62279 0.68482 5.27609 2.71714e-07 7 2.71714e-07ZM7 2C6.40905 2 5.82389 2.1164 5.27792 2.34254C4.73196 2.56869 4.23588 2.90016 3.81802 3.31802C3.40016 3.73588 3.06869 4.23196 2.84254 4.77793C2.6164 5.32389 2.5 5.90905 2.5 6.5C2.5 7.09095 2.6164 7.67611 2.84254 8.22208C3.06869 8.76804 3.40016 9.26412 3.81802 9.68198C4.23588 10.0998 4.73196 10.4313 5.27792 10.6575C5.82389 10.8836 6.40905 11 7 11C8.19347 11 9.33807 10.5259 10.182 9.68198C11.0259 8.83807 11.5 7.69347 11.5 6.5C11.5 5.30653 11.0259 4.16193 10.182 3.31802C9.33807 2.47411 8.19347 2 7 2Z" fill="#222222"/>
</svg>
