<svg width="20" height="20" viewBox="0 0 20 20" fill="none" xmlns="http://www.w3.org/2000/svg">
<path d="M9.37378 0.445093C9.15076 0.57364 8.97287 0.767902 8.8644 1.00134L6.61065 5.85509L1.2194 6.55009C1.05655 6.57107 0.899423 6.62393 0.757002 6.70564C0.614581 6.78736 0.489655 6.89634 0.389362 7.02635C0.289068 7.15636 0.215372 7.30485 0.172483 7.46335C0.129594 7.62185 0.118354 7.78725 0.139403 7.95009L0.158778 8.05947C0.215199 8.31404 0.349814 8.54459 0.543778 8.71884L4.51878 12.2976L3.44628 17.6776C3.38153 18.0026 3.44853 18.3401 3.63254 18.6158C3.81655 18.8914 4.1025 19.0827 4.42753 19.1476L4.54003 19.1651C4.80392 19.1931 5.06988 19.1364 5.2994 19.0032L9.99878 16.2795L14.6988 19.0032C14.8408 19.0856 14.9977 19.1392 15.1604 19.161C15.3232 19.1827 15.4886 19.1722 15.6473 19.13C15.806 19.0878 15.9548 19.0148 16.0852 18.9151C16.2157 18.8153 16.3252 18.6909 16.4075 18.5488L16.46 18.4476C16.5715 18.2072 16.6037 17.9375 16.5519 17.6776L15.4788 12.2976L19.4544 8.71884C19.5764 8.609 19.6756 8.47619 19.7463 8.328C19.817 8.17982 19.8578 8.01915 19.8664 7.85519C19.875 7.69123 19.8512 7.52718 19.7964 7.37242C19.7416 7.21766 19.6568 7.07521 19.5469 6.95322L19.4688 6.87384C19.2779 6.69661 19.0365 6.58342 18.7782 6.55009L13.3863 5.85447L11.1325 1.00134C10.9928 0.700778 10.7395 0.467999 10.4282 0.354194C10.1169 0.240389 9.77314 0.254876 9.47253 0.394468L9.37378 0.445093ZM7.45503 7.00697L9.99878 1.52822L12.5425 7.00697L18.6175 7.78947L14.1138 11.8451L15.325 17.922L9.99815 14.8345L4.6719 17.922L5.88378 11.8451L1.3794 7.78947L7.45503 7.00697Z" fill="#222222"/>
</svg>
