<svg width="12" height="13" viewBox="0 0 12 13" fill="none" xmlns="http://www.w3.org/2000/svg">
<g clip-path="url(#clip0_2_13821)">
<path fill-rule="evenodd" clip-rule="evenodd" d="M5.6603 1.51804L4.1138 4.84992L0.416303 5.32617C0.345036 5.33523 0.277873 5.36458 0.222803 5.41071C0.167733 5.45685 0.127074 5.51783 0.105664 5.58641C0.0842532 5.65499 0.0829919 5.72827 0.10203 5.79754C0.121068 5.86682 0.159603 5.92916 0.213053 5.97717L2.94793 8.43904L2.21105 12.1335C2.19687 12.2043 2.20343 12.2777 2.22995 12.3449C2.25647 12.4121 2.30182 12.4702 2.36055 12.5122C2.41928 12.5542 2.48889 12.5784 2.56103 12.5818C2.63316 12.5852 2.70474 12.5677 2.76718 12.5314L6.00005 10.6575L9.23443 12.5314C9.29683 12.5675 9.36832 12.5849 9.44034 12.5815C9.51236 12.578 9.58186 12.5539 9.64051 12.5119C9.69916 12.47 9.74447 12.412 9.77101 12.345C9.79756 12.2779 9.80421 12.2046 9.79018 12.1339L9.0533 8.43904L11.7882 5.97717C11.8415 5.92916 11.8799 5.86688 11.8989 5.79769C11.9179 5.7285 11.9166 5.65532 11.8953 5.58682C11.8739 5.51833 11.8334 5.4574 11.7784 5.41127C11.7235 5.36513 11.6565 5.33573 11.5853 5.32654L7.8878 4.84992L6.34018 1.51804C6.31007 1.4532 6.26206 1.39832 6.2018 1.35986C6.14154 1.3214 6.07154 1.30096 6.00005 1.30096C5.92857 1.30096 5.85857 1.3214 5.79831 1.35986C5.73805 1.39832 5.69003 1.4532 5.65993 1.51804H5.6603Z" fill="#717171"/>
</g>
<defs>
<clipPath id="clip0_2_13821">
<rect width="12" height="12" fill="white" transform="translate(0 0.925903)"/>
</clipPath>
</defs>
</svg>
