<svg width="18" height="20" viewBox="0 0 18 20" fill="none" xmlns="http://www.w3.org/2000/svg">
<path d="M6.29172 0.800049L6.29112 1.8413H11.708L11.7083 0.800049H12.9583L12.958 1.8413L16.7084 1.84169C17.3674 1.84169 17.9073 2.35161 17.955 2.9984L17.9584 3.09169V13.0411C17.9584 13.3358 17.8544 13.6198 17.6666 13.8439L17.5923 13.925L12.125 19.3924C11.9166 19.6006 11.6423 19.7278 11.3511 19.7535L11.2412 19.7584H3.16675C1.48628 19.7584 0.115612 18.4319 0.0446353 16.7689L0.041748 16.6334V3.09169C0.041748 2.43271 0.55167 1.89284 1.19846 1.84512L1.29175 1.84169L5.04112 1.8413L5.04172 0.800049L6.29172 0.800049ZM16.708 8.0913H1.29175V16.6334C1.29175 17.6319 2.07233 18.4481 3.05658 18.5052L3.16675 18.5084L10.0411 18.5082L10.0417 14.9667C10.0417 13.2862 11.3682 11.9155 13.0312 11.8446L13.1668 11.8417L16.708 11.8413V8.0913ZM16.6574 13.0913L13.1668 13.0917C12.1682 13.0917 11.3519 13.8723 11.2949 14.8565L11.2917 14.9667L11.2911 18.4582L16.6574 13.0913ZM5.04112 3.0913L1.29175 3.09169V6.8413H16.708L16.7084 3.09169L12.958 3.0913L12.9583 4.13338H11.7083L11.708 3.0913H6.29112L6.29172 4.13338H5.04172L5.04112 3.0913Z" fill="#222222"/>
</svg>
