<svg width="20" height="16" viewBox="0 0 20 16" fill="none" xmlns="http://www.w3.org/2000/svg">
<path d="M9.99992 10.5083C11.2656 10.5083 12.2916 11.5343 12.2916 12.8C12.2916 14.0656 11.2656 15.0917 9.99992 15.0917C8.73426 15.0917 7.70825 14.0656 7.70825 12.8C7.70825 11.5343 8.73426 10.5083 9.99992 10.5083ZM9.99992 11.7583C9.42462 11.7583 8.95825 12.2247 8.95825 12.8C8.95825 13.3753 9.42462 13.8417 9.99992 13.8417C10.5752 13.8417 11.0416 13.3753 11.0416 12.8C11.0416 12.2247 10.5752 11.7583 9.99992 11.7583ZM9.99998 7.17505C12.198 7.17505 14.1015 8.43575 15.027 10.2735L14.0805 11.219C13.4467 9.58415 11.8587 8.42505 9.99998 8.42505C8.14127 8.42505 6.55329 9.58415 5.91941 11.219L4.97327 10.2729C5.89884 8.43547 7.80222 7.17505 9.99998 7.17505ZM10 3.8418C13.1128 3.8418 15.8548 5.42943 17.4604 7.83912L16.556 8.74374C15.1968 6.5517 12.7689 5.0918 10 5.0918C7.23117 5.0918 4.80328 6.5517 3.44411 8.74374L2.53967 7.83912C4.14527 5.42943 6.88725 3.8418 10 3.8418ZM9.99992 0.508301C14.0318 0.508301 17.6103 2.44957 19.8517 5.44843L18.9577 6.3428C16.9523 3.56566 13.6872 1.7583 9.99992 1.7583C6.31295 1.7583 3.04805 3.56539 1.04261 6.34217L0.14856 5.44781C2.39 2.4493 5.96828 0.508301 9.99992 0.508301Z" fill="#222222"/>
</svg>
