<svg width="17" height="16" viewBox="0 0 17 16" fill="none" xmlns="http://www.w3.org/2000/svg">
<g clip-path="url(#clip0_2_14090)">
<path d="M8.06499 0.25C10.1229 0.255827 12.0945 1.07784 13.5471 2.53567C14.9997 3.99349 15.8146 5.96804 15.813 8.026C15.8061 10.0372 15.0176 11.9669 13.6142 13.4074C12.2108 14.848 10.3023 15.6866 8.29199 15.746L8.04599 15.75C6.03443 15.7457 4.10334 14.9595 2.66085 13.5575C1.21836 12.1556 0.377499 10.2476 0.315988 8.237L0.312988 7.992C0.315109 5.93761 1.13283 3.96812 2.58644 2.51639C4.04005 1.06465 6.0106 0.249469 8.06499 0.25ZM10.014 8.75H6.11099C6.26599 11.647 7.28699 14.093 7.99699 14.243L8.06499 14.25C8.74499 14.248 9.78499 11.885 9.99699 9.02L10.014 8.75ZM14.269 8.75H11.517C11.426 10.71 10.987 12.533 10.329 13.826C11.3439 13.4306 12.238 12.7771 12.9229 11.9302C13.6078 11.0832 14.0597 10.0722 14.234 8.997L14.269 8.75ZM4.60799 8.75H1.85799C1.99401 9.87243 2.43163 10.937 3.12433 11.8306C3.81702 12.7242 4.73891 13.4134 5.79199 13.825C5.17699 12.617 4.75599 10.95 4.62999 9.139L4.60799 8.749V8.75ZM5.79599 2.174L5.68099 2.22C4.65478 2.64383 3.75984 3.33309 3.088 4.21704C2.41616 5.10099 1.99164 6.14779 1.85799 7.25H4.60799C4.69299 5.42 5.07899 3.71 5.66699 2.44L5.79599 2.174ZM8.05799 1.75C7.35599 1.752 6.27399 4.262 6.11099 7.25H10.015C9.85899 4.347 8.83699 1.907 8.12299 1.756L8.05799 1.749V1.75ZM10.338 2.182L10.361 2.232C11.004 3.52 11.43 5.316 11.518 7.25H14.266C14.1273 6.13 13.6892 5.06812 12.9978 4.17621C12.3063 3.2843 11.3871 2.59538 10.337 2.182H10.338Z" fill="#222222"/>
</g>
<defs>
<clipPath id="clip0_2_14090">
<rect width="16" height="16" fill="white" transform="translate(0.0629883)"/>
</clipPath>
</defs>
</svg>
