<svg width="16" height="17" viewBox="0 0 16 17" fill="none" xmlns="http://www.w3.org/2000/svg">
<path d="M7.99999 0.526356C8.89999 0.526356 9.72999 0.916356 10.33 1.60636C10.53 1.83636 10.66 2.04636 10.83 2.33636L10.93 2.53636L11.17 2.97636L12.04 4.67636C12.7211 6.02427 13.3845 7.38105 14.03 8.74636L14.73 10.2664L15.1 11.0564L15.2 11.3364L15.26 11.4664C15.48 12.0964 15.56 12.7064 15.46 13.3364C15.3666 13.9781 15.107 14.5842 14.7071 15.0946C14.3071 15.6051 13.7807 16.0021 13.18 16.2464C12.5842 16.486 11.9377 16.572 11.3 16.4964C10.6975 16.4231 10.1159 16.2292 9.58999 15.9264C9.19762 15.7008 8.82908 15.4361 8.48999 15.1364L8.20999 14.8964L7.99999 14.6864L7.78999 14.8864C7.5029 15.1594 7.19533 15.4102 6.86999 15.6364L6.63999 15.7864L6.40999 15.9264C5.88707 16.228 5.30904 16.4218 4.70999 16.4964C4.06899 16.5737 3.41885 16.4877 2.81999 16.2464C2.21929 16.0021 1.69286 15.6051 1.29293 15.0946C0.892989 14.5842 0.633431 13.9781 0.539992 13.3364C0.450205 12.7061 0.518944 12.0634 0.739992 11.4664L0.789992 11.3364L0.839992 11.2064L0.979992 10.8964L1.96999 8.74636C2.60999 7.39636 3.26999 6.03636 3.95999 4.67636L4.64999 3.33636L5.06999 2.53636C5.28999 2.12636 5.43999 1.88636 5.66999 1.60636C5.95558 1.2667 6.31229 0.993917 6.71491 0.807295C7.11753 0.620674 7.55623 0.524768 7.99999 0.526356ZM7.99999 2.02636C7.77248 2.02535 7.54761 2.07509 7.34175 2.17197C7.13589 2.26884 6.95423 2.41041 6.80999 2.58636C6.64694 2.79081 6.50614 3.01206 6.38999 3.24636L6.20999 3.58636L6.02999 3.92636L5.29999 5.35636C4.62579 6.69105 3.96906 8.03449 3.32999 9.38636L2.69999 10.7264L2.34999 11.4964L2.14999 11.9664C2.00894 12.3357 1.9642 12.7349 2.01999 13.1264C2.07677 13.508 2.23206 13.8683 2.47055 14.1717C2.70904 14.4751 3.0225 14.7111 3.37999 14.8564C3.73999 15.0064 4.12999 15.0564 4.52999 15.0064C4.93227 14.954 5.31993 14.8214 5.66999 14.6164C6.20999 14.3164 6.75999 13.8564 7.36999 13.1664C6.52962 12.1905 5.91804 11.0391 5.57999 9.79636C5.48031 9.38056 5.45996 8.9497 5.51999 8.52636C5.57999 8.14636 5.68999 7.87636 5.88999 7.57636C6.34999 6.90636 7.13999 6.52636 7.99999 6.52636C8.85999 6.52636 9.64999 6.89636 10.1 7.56636C10.31 7.86636 10.45 8.20636 10.5 8.58636C10.57 8.97636 10.54 9.40636 10.44 9.85636C10.22 10.8464 9.59999 11.9564 8.62999 13.1564C9.11437 13.7286 9.68852 14.2183 10.33 14.6064C10.72 14.8264 11.09 14.9564 11.47 15.0064C11.87 15.0464 12.26 14.9964 12.62 14.8464C12.9775 14.7011 13.2909 14.4651 13.5294 14.1617C13.7679 13.8583 13.9232 13.498 13.98 13.1164C14.0358 12.7249 13.991 12.3257 13.85 11.9564C13.7892 11.7972 13.7225 11.6405 13.65 11.4864L13.48 11.1064L13.31 10.7364L12.67 9.37636C12.0309 8.02449 11.3742 6.68104 10.7 5.34636L10.02 4.00636L9.78999 3.57636L9.60999 3.23636C9.49397 3.00198 9.35317 2.78072 9.18999 2.57636C9.04478 2.40224 8.86269 2.26257 8.65688 2.16745C8.45108 2.07233 8.22671 2.02413 7.99999 2.02636ZM7.99999 8.02636C7.32999 8.02636 6.99999 8.37636 6.99999 9.07636C6.99999 9.77636 7.32999 10.5964 7.99999 11.5264C8.66999 10.5964 8.99999 9.77636 8.99999 9.07636C8.99999 8.37636 8.66999 8.02636 7.99999 8.02636Z" fill="#222222"/>
</svg>
