<svg width="22" height="21" viewBox="0 0 22 21" fill="none" xmlns="http://www.w3.org/2000/svg">
<path d="M18.5 0.800049C18.8784 0.799929 19.2429 0.942854 19.5204 1.20017C19.7979 1.45749 19.9679 1.81018 19.9963 2.18755L20 2.30005V8.1793L21.3845 12.332C21.4226 12.4465 21.4515 12.5639 21.4708 12.683L21.4932 12.863L21.5 13.043V20.3H20V18.8H2V20.3H0.5V13.0438C0.500014 12.8626 0.521923 12.682 0.56525 12.506L0.6155 12.332L2 8.17705V2.30005C1.99998 1.94159 2.12833 1.59499 2.36181 1.32299C2.59528 1.051 2.91843 0.871605 3.27275 0.817299L3.38825 0.803799L3.5 0.800049H18.5ZM20 14.3H2V17.3H20V14.3ZM18.959 9.80005H3.04025L2.0405 12.8H19.9587L18.959 9.80005ZM18.5 2.30005H3.5V8.30005H5V5.30005C4.99988 4.92162 5.1428 4.55712 5.40012 4.27964C5.65744 4.00215 6.01013 3.83218 6.3875 3.8038L6.5 3.80005H15.5C15.8784 3.79993 16.2429 3.94285 16.5204 4.20017C16.7979 4.45749 16.9679 4.81018 16.9963 5.18755L17 5.30005V8.30005H18.5V2.30005ZM10.25 5.30005H6.5V8.30005H10.25V5.30005ZM15.5 5.30005H11.75V8.30005H15.5V5.30005Z" fill="#222222"/>
</svg>
