<svg width="30" height="30" viewBox="0 0 30 30" fill="none" xmlns="http://www.w3.org/2000/svg">
<path d="M25 0.146487C26.2888 0.145239 27.5284 0.641718 28.46 1.53233C29.3916 2.42295 29.9433 3.6389 30 4.92649V19.1465C30.0012 20.4353 29.5048 21.6749 28.6142 22.6065C27.7235 23.5381 26.5076 24.0898 25.22 24.1465H19.16L15 29.2265L10.84 24.1465H5C3.75019 24.1463 2.54576 23.6781 1.62399 22.8341C0.702232 21.9901 0.129985 20.8314 0.0200023 19.5865L2.34776e-06 19.3665V5.14649C-0.00124582 3.85766 0.495233 2.61812 1.38585 1.68652C2.27646 0.75491 3.49242 0.203195 4.78 0.146487H5H25ZM25 2.14649H5C4.23458 2.14511 3.49758 2.43635 2.93987 2.9606C2.38216 3.48485 2.04593 4.20244 2 4.96649V19.1465C1.99862 19.9119 2.28987 20.6489 2.81411 21.2066C3.33836 21.7643 4.05596 22.1006 4.82 22.1465H11.8L15 26.0665L18.2 22.1465H25C25.7654 22.1479 26.5024 21.8566 27.0601 21.3324C27.6178 20.8081 27.9541 20.0905 28 19.3265V5.14649C28.0014 4.38106 27.7101 3.64406 27.1859 3.08635C26.6616 2.52864 25.944 2.19241 25.18 2.14649H25Z" fill="#222222"/>
</svg>
