<svg width="13" height="12" viewBox="0 0 13 12" fill="none" xmlns="http://www.w3.org/2000/svg">
<path d="M3.5 6C4.12065 5.99968 4.72613 6.19186 5.23298 6.55006C5.73984 6.90826 6.12312 7.41484 6.33 8H12.5V10H6.33C6.14669 10.5185 5.82439 10.9766 5.39833 11.3243C4.97226 11.672 4.45882 11.8959 3.91412 11.9715C3.36941 12.0471 2.8144 11.9716 2.30973 11.7531C1.80506 11.5346 1.37016 11.1816 1.05254 10.7327C0.734918 10.2838 0.546807 9.75616 0.508761 9.20755C0.470715 8.65894 0.584198 8.11042 0.836809 7.62194C1.08942 7.13347 1.47144 6.72382 1.94112 6.43778C2.4108 6.15173 2.95007 6.00029 3.5 6ZM3.5 8C3.23478 8 2.98043 8.10536 2.79289 8.29289C2.60536 8.48043 2.5 8.73478 2.5 9C2.5 9.26522 2.60536 9.51957 2.79289 9.70711C2.98043 9.89464 3.23478 10 3.5 10C3.76522 10 4.01957 9.89464 4.20711 9.70711C4.39464 9.51957 4.5 9.26522 4.5 9C4.5 8.73478 4.39464 8.48043 4.20711 8.29289C4.01957 8.10536 3.76522 8 3.5 8ZM9.5 4.12473e-07C10.0499 0.000288763 10.5892 0.151731 11.0589 0.437777C11.5286 0.723824 11.9106 1.13347 12.1632 1.62195C12.4158 2.11042 12.5293 2.65894 12.4912 3.20755C12.4532 3.75616 12.2651 4.28376 11.9475 4.73269C11.6298 5.18162 11.1949 5.53462 10.6903 5.75309C10.1856 5.97157 9.63059 6.04712 9.08588 5.9715C8.54118 5.89588 8.02774 5.67198 7.60167 5.32429C7.17561 4.9766 6.85331 4.51848 6.67 4H0.5V2H6.67C6.87688 1.41484 7.26016 0.908257 7.76702 0.550056C8.27387 0.191856 8.87935 -0.00032496 9.5 4.12473e-07ZM9.5 2C9.23478 2 8.98043 2.10536 8.79289 2.29289C8.60536 2.48043 8.5 2.73478 8.5 3C8.5 3.26522 8.60536 3.51957 8.79289 3.70711C8.98043 3.89464 9.23478 4 9.5 4C9.76522 4 10.0196 3.89464 10.2071 3.70711C10.3946 3.51957 10.5 3.26522 10.5 3C10.5 2.73478 10.3946 2.48043 10.2071 2.29289C10.0196 2.10536 9.76522 2 9.5 2Z" fill="#222222"/>
</svg>
