<svg width="22" height="23" viewBox="0 0 22 23" fill="none" xmlns="http://www.w3.org/2000/svg">
<path d="M11 0.25C12.5 0.25 13.595 0.97 14.5625 2.7025L14.96 3.4675C16.8067 7.14276 18.582 10.8535 20.285 14.5975L20.3975 14.86C20.9 16.06 21.0725 16.72 21.1175 17.41V17.7175L21.125 17.89C21.125 20.935 18.965 22.75 16.355 22.75C14.69 22.75 12.9425 21.805 11.33 20.2075L11.135 20.0125L11.0075 19.885H10.9925L10.865 20.02C9.3275 21.595 7.6625 22.585 6.05 22.735L5.84 22.7425L5.645 22.75C3.035 22.75 0.875 20.935 0.875 17.89V17.5375C0.8975 16.84 1.0475 16.21 1.4975 15.1075L1.6625 14.71C2.39 12.985 6.2225 4.975 7.4375 2.6875C8.4125 0.97 9.5 0.25 11 0.25ZM11 1.75C10.07 1.75 9.4625 2.155 8.7575 3.4075L8.3675 4.1575C6.5393 7.79827 4.78148 11.474 3.095 15.1825L2.8325 15.8125C2.58825 16.3429 2.43608 16.911 2.3825 17.4925L2.375 17.74V17.89C2.375 20.05 3.8075 21.25 5.645 21.25C6.9725 21.25 8.5475 20.32 10.0175 18.7375C8.2925 16.5325 7.1225 13.9 7.1225 12.055C7.1225 9.865 8.5775 8.0125 11.0075 7.99C13.4225 8.0125 14.8775 9.865 14.8775 12.055C14.8775 13.8925 13.7075 16.525 11.9825 18.73C13.46 20.3275 15.0275 21.25 16.355 21.25C18.1925 21.25 19.625 20.05 19.625 17.89V17.59C19.5747 16.9037 19.3913 16.2337 19.085 15.6175L18.8975 15.1675C18.1025 13.3075 14.405 5.59 13.25 3.4225C12.5375 2.1475 11.93 1.75 11 1.75ZM11.0075 9.49C9.5 9.505 8.6225 10.6225 8.6225 12.055C8.6225 13.405 9.5075 15.49 10.8425 17.335L10.9925 17.5525L11.1275 17.3725C12.425 15.5875 13.3025 13.5775 13.3775 12.22V12.055C13.3775 10.63 12.5 9.505 11.0075 9.49Z" fill="#B0B0B0"/>
</svg>
