<svg width="24" height="22" viewBox="0 0 24 22" fill="none" xmlns="http://www.w3.org/2000/svg">
<path d="M19.5 1.76082e-06C20.4666 -0.000934364 21.3963 0.371425 22.095 1.03939C22.7937 1.70735 23.2075 2.61931 23.25 3.585V14.25C23.2509 15.2166 22.8786 16.1463 22.2106 16.845C21.5427 17.5437 20.6307 17.9575 19.665 18H15.12L12 21.81L8.88 18H4.5C3.56265 17.9999 2.65932 17.6487 1.968 17.0157C1.27667 16.3827 0.847489 15.5137 0.765002 14.58L0.750002 14.415V3.75C0.749066 2.78338 1.12142 1.85373 1.78939 1.15502C2.45735 0.456319 3.36931 0.0425327 4.335 1.76082e-06H4.5H19.5ZM19.5 1.5H4.5C3.92593 1.49897 3.37318 1.7174 2.9549 2.11059C2.53662 2.50377 2.28445 3.04197 2.25 3.615V14.25C2.24897 14.8241 2.4674 15.3768 2.86059 15.7951C3.25377 16.2134 3.79197 16.4656 4.365 16.5H9.6L12 19.44L14.4 16.5H19.5C20.0741 16.501 20.6268 16.2826 21.0451 15.8894C21.4634 15.4962 21.7156 14.958 21.75 14.385V3.75C21.751 3.17593 21.5326 2.62318 21.1394 2.2049C20.7462 1.78662 20.208 1.53444 19.635 1.5H19.5Z" fill="#B0B0B0"/>
</svg>
