<svg width="24" height="25" viewBox="0 0 24 25" fill="none" xmlns="http://www.w3.org/2000/svg">
<path d="M15.75 16.25L22.5 23M9.75 18.5C10.8334 18.5 11.9062 18.2866 12.9071 17.872C13.9081 17.4574 14.8175 16.8497 15.5836 16.0836C16.3497 15.3175 16.9574 14.4081 17.372 13.4071C17.7866 12.4062 18 11.3334 18 10.25C18 9.16659 17.7866 8.0938 17.372 7.09286C16.9574 6.09193 16.3497 5.18245 15.5836 4.41637C14.8175 3.65029 13.9081 3.0426 12.9071 2.62799C11.9062 2.21339 10.8334 2 9.75 2C7.56196 2 5.46354 2.86919 3.91637 4.41637C2.36919 5.96354 1.5 8.06196 1.5 10.25C1.5 12.438 2.36919 14.5365 3.91637 16.0836C5.46354 17.6308 7.56196 18.5 9.75 18.5Z" stroke="#69A0EE" stroke-width="3"/>
</svg>
