<svg width="20" height="20" viewBox="0 0 20 20" fill="none" xmlns="http://www.w3.org/2000/svg">
<path d="M15.075 15.625C16.8375 13.9813 17.6188 11.25 17.15 8.63126H10.1562V11.525H14.1375C14.0602 11.9789 13.8884 12.4116 13.6332 12.7948C13.378 13.1781 13.0452 13.5036 12.6562 13.75L15.075 15.625Z" fill="#4285F4"/>
<path d="M3.51251 13.3187C4.02623 14.3311 4.76308 15.2137 5.6675 15.8999C6.57192 16.586 7.62032 17.058 8.73365 17.28C9.84698 17.5021 10.9962 17.4685 12.0947 17.1818C13.1931 16.8951 14.2122 16.3628 15.075 15.625L12.6563 13.75C12.0827 14.1219 11.4315 14.3575 10.7527 14.4386C10.0739 14.5197 9.3855 14.4442 8.74041 14.2179C8.09532 13.9916 7.51065 13.6205 7.03128 13.1331C6.55191 12.6457 6.19058 12.055 5.97501 11.4062L3.51251 13.3187Z" fill="#34A853"/>
<path d="M5.97501 11.4063C5.66251 10.4313 5.66251 9.53126 5.97501 8.55626L3.51251 6.63751C2.99887 7.67733 2.73169 8.8215 2.73169 9.98126C2.73169 11.141 2.99887 12.2852 3.51251 13.325L5.97501 11.4063Z" fill="#FBBC02"/>
<path d="M5.97501 8.55626C6.83751 5.85626 10.5063 4.29376 12.9688 6.60001L15.1188 4.49376C14.2768 3.71734 13.2656 3.14767 12.1653 2.8299C11.065 2.51213 9.90575 2.45499 8.77951 2.66302C7.65326 2.87104 6.59094 3.33851 5.67673 4.02838C4.76252 4.71825 4.02154 5.61155 3.51251 6.63751L5.97501 8.55626Z" fill="#EA4335"/>
</svg>
