<svg width="46" height="44" viewBox="0 0 46 44" fill="none" xmlns="http://www.w3.org/2000/svg">
<path opacity="0.2" d="M14.0368 21.5959L11.3018 24.3969C10.9375 24.7705 10.4417 24.9869 9.92003 25C9.39842 25.0131 8.89234 24.8218 8.50979 24.4669L5.96179 21.6699C5.23179 24.5599 4.79979 26.4769 4.66679 27.4199C4.53279 28.3619 4.45379 29.1399 4.42879 29.7539C4.42379 29.9919 4.44179 30.3539 4.48479 30.8399C4.65479 32.0499 4.99979 33.1699 5.49579 34.1729C7.32079 37.8629 10.9658 39.9209 14.4448 40.0419C17.7548 40.1569 19.9618 39.2479 22.7578 36.5619L25.4728 33.8099L14.0368 21.5959Z" fill="#69A0EE"/>
<path d="M26.6152 8.793C27.0842 9.261 27.4052 9.821 27.5802 10.415L28.2002 9.793C28.8855 9.10171 29.8085 8.69747 30.7812 8.6625C31.754 8.62754 32.7036 8.96448 33.4368 9.60478C34.1699 10.2451 34.6317 11.1406 34.728 12.1093C34.8243 13.0779 34.548 14.0469 33.9552 14.819C34.5788 14.9966 35.1471 15.3296 35.6068 15.7869C36.0666 16.2442 36.4026 16.8107 36.5835 17.4333C36.7644 18.056 36.7842 18.7144 36.6411 19.3468C36.498 19.9792 36.1966 20.5649 35.7652 21.049L33.9952 22.829C34.4472 22.962 34.8802 23.18 35.2672 23.484L35.6152 23.793C36.3061 24.4835 36.7069 25.412 36.7356 26.3884C36.7642 27.3648 36.4185 28.3152 35.7692 29.045L25.3322 39.605C24.2882 40.54 23.5922 41.127 23.2462 41.365C21.3622 42.74 19.4592 43.515 17.1462 43.829C16.4232 43.984 15.2782 44.025 13.7142 43.952C6.66022 43.377 1.03622 37.754 0.457225 30.702C0.311225 27.81 1.02922 23.852 2.61022 18.826C3.62923 14.909 4.40322 12.037 4.93322 10.21C5.17222 8.895 7.07022 8.796 8.65322 9.456L8.98022 9.606C10.8472 10.539 11.8502 12.414 11.4422 14.905L10.7072 19.286L21.2012 8.793C21.5567 8.43748 21.9787 8.15546 22.4432 7.96305C22.9077 7.77064 23.4055 7.67161 23.9082 7.67161C24.411 7.67161 24.9088 7.77064 25.3733 7.96305C25.8377 8.15546 26.2598 8.43748 26.6152 8.793ZM22.7382 10.095L11.2442 21.578C15.4302 26.005 15.4302 33.08 11.0402 37.632L9.62623 36.218C13.2662 32.576 13.3342 26.714 9.77923 22.938L8.33822 21.343L9.42823 14.803C9.77923 13.051 9.22422 11.963 8.08722 11.394C7.74722 11.214 7.31023 11.108 6.77723 11.077C4.79122 18.359 3.54922 22.988 3.05122 24.963C2.62923 26.85 2.41722 28.519 2.41722 29.973C2.65222 36.293 7.58222 41.416 13.8222 41.953C14.9492 42.011 15.9622 41.977 16.8612 41.849C18.8592 41.578 20.4492 40.93 22.0822 39.739C22.6952 39.409 26.7352 35.428 34.2022 27.793C34.5382 27.461 34.7327 27.0119 34.7449 26.5397C34.7571 26.0675 34.586 25.609 34.2676 25.2601C33.9491 24.9113 33.508 24.6992 33.0366 24.6685C32.5653 24.6377 32.1003 24.7905 31.7392 25.095L25.6822 31.14L24.3202 29.673L34.2022 19.793C34.5067 19.4885 34.6939 19.0864 34.7311 18.6575C34.7682 18.2285 34.6528 17.8002 34.4052 17.448L34.2022 17.208C34.0325 17.0381 33.8309 16.9034 33.609 16.8114C33.3872 16.7195 33.1494 16.6722 32.9092 16.6722C32.6691 16.6722 32.4313 16.7195 32.2094 16.8114C31.9876 16.9034 31.786 17.0381 31.6162 17.208L21.8312 26.992L20.4682 25.525L32.2022 13.793C32.5067 13.4885 32.6939 13.0864 32.7311 12.6575C32.7682 12.2285 32.6528 11.8002 32.4052 11.448L32.2022 11.208C31.8797 10.8854 31.4483 10.695 30.9926 10.6741C30.537 10.6532 30.0899 10.8033 29.7392 11.095L17.9782 22.844L16.6162 21.377L25.2022 12.793C25.5247 12.4704 25.7149 12.0389 25.7356 11.5832C25.7563 11.1275 25.606 10.6806 25.3142 10.33L25.0792 10.095C24.7507 9.82155 24.3367 9.67182 23.9092 9.67182C23.4818 9.67182 23.0668 9.82155 22.7382 10.095ZM45.4082 16V18H40.4082V16H45.4082ZM40.7012 3.293L42.1152 4.707L38.1152 8.707L36.7012 7.293L40.7012 3.293ZM29.4082 0V5H27.4082V0H29.4082Z" fill="#69A0EE"/>
</svg>
