<svg width="20" height="24" viewBox="0 0 20 24" fill="none" xmlns="http://www.w3.org/2000/svg">
<path d="M2.275 0.975098L4.525 3.2251L4.03 3.7651C2.49486 5.47977 1.67494 7.71739 1.73877 10.018C1.80261 12.3186 2.74537 14.5073 4.37323 16.1342C6.00109 17.7611 8.19036 18.7025 10.491 18.765C12.7916 18.8275 15.0287 18.0062 16.7425 16.4701L17.2825 15.9676L19.5325 18.2176L18.4675 19.2826L17.215 18.0226C15.572 19.309 13.5816 20.0743 11.5 20.2201V21.7501H13.75V23.2501H7.75V21.7501H10V20.2201C7.4731 20.0436 5.09605 18.9563 3.31 17.1601C1.50385 15.3463 0.422472 12.9352 0.269166 10.3801C0.115859 7.82497 0.901186 5.30186 2.4775 3.2851L1.2175 2.0326L2.275 0.975098ZM15.91 4.3051L16.0675 4.4626L16.225 4.6276C17.5586 6.06387 18.277 7.96513 18.2264 9.92444C18.1758 11.8837 17.3603 13.7454 15.9543 15.1109C14.5484 16.4765 12.6637 17.2374 10.7038 17.2308C8.74382 17.2242 6.86432 16.4507 5.46755 15.0757C4.07078 13.7008 3.26774 11.8337 3.2303 9.87412C3.19286 7.91452 3.924 6.01812 5.26723 4.59083C6.61046 3.16354 8.45904 2.31876 10.4173 2.23733C12.3756 2.15589 14.2879 2.84426 15.745 4.1551L15.91 4.3051ZM8.905 12.6526L7.0675 14.4901C7.91128 15.1467 8.91519 15.5659 9.97534 15.7044C11.0355 15.8428 12.1134 15.6955 13.0975 15.2776C11.5394 14.69 10.1141 13.7976 8.905 12.6526ZM12.5875 8.9701L9.9625 11.5951C12.1 13.5001 14.5225 14.4601 14.9875 13.9951C15.46 13.5376 14.4925 11.1076 12.5875 8.9701ZM5.23 7.3951L5.17 7.5376C4.78488 8.50833 4.65979 9.56276 4.80712 10.5967C4.95444 11.6305 5.36907 12.6081 6.01 13.4326L7.8475 11.5951C6.70134 10.384 5.80885 8.95605 5.2225 7.3951H5.23ZM15.49 6.0751L13.6525 7.9051C14.7979 9.11678 15.6902 10.5446 16.2775 12.1051C16.6968 11.12 16.8449 10.0407 16.7065 8.97904C16.568 7.91741 16.148 6.91216 15.49 6.0676V6.0751ZM6.505 5.5051C6.04 5.9701 7 8.4001 8.905 10.5301L11.53 7.9051C9.3925 6.0001 6.9775 5.0401 6.505 5.5051ZM8.41 4.2301C9.7225 4.6726 11.2225 5.6026 12.595 6.8476L14.425 5.0101C13.581 4.35959 12.5796 3.94464 11.5229 3.80761C10.4661 3.67057 9.39197 3.81637 8.41 4.2301Z" fill="#222222"/>
</svg>
