<svg width="24" height="22" viewBox="0 0 24 22" fill="none" xmlns="http://www.w3.org/2000/svg">
<path d="M15 0.500006C15.3791 0.498938 15.7445 0.641439 16.0228 0.898851C16.3011 1.15626 16.4716 1.50949 16.5 1.88751V3.50001H21C21.5741 3.49897 22.1268 3.71741 22.5451 4.11059C22.9634 4.50378 23.2156 5.04197 23.25 5.61501V19.25C23.251 19.8241 23.0326 20.3768 22.6394 20.7951C22.2462 21.2134 21.708 21.4656 21.135 21.5H3C2.42594 21.501 1.87318 21.2826 1.4549 20.8894C1.03662 20.4962 0.784447 19.958 0.750004 19.385V5.75001C0.748969 5.17594 0.967403 4.62319 1.36059 4.20491C1.75377 3.78662 2.29197 3.53445 2.865 3.50001H7.5V2.00001C7.49894 1.62093 7.64144 1.2555 7.89885 0.977219C8.15626 0.698936 8.50949 0.528436 8.8875 0.500006H9H15ZM21 5.00001H3C2.81574 4.99868 2.63744 5.06522 2.49912 5.18695C2.36079 5.30868 2.27211 5.47707 2.25 5.66001V8.00001C2.24897 8.57407 2.4674 9.12683 2.86059 9.54511C3.25377 9.96339 3.79197 10.2156 4.365 10.25H9.75V11.75H4.5C3.68844 11.7511 2.8986 11.4878 2.25 11V19.25C2.24867 19.4343 2.31522 19.6126 2.43695 19.7509C2.55868 19.8892 2.72707 19.9779 2.91 20H21C21.1843 20.0013 21.3626 19.9348 21.5009 19.8131C21.6392 19.6913 21.7279 19.5229 21.75 19.34V11C21.165 11.4425 20.445 11.7125 19.665 11.75H14.2875V10.25H19.5C20.0741 10.251 20.6268 10.0326 21.0451 9.63942C21.4634 9.24624 21.7156 8.70804 21.75 8.13501V5.75001C21.7513 5.56575 21.6848 5.38745 21.5631 5.24912C21.4413 5.11079 21.2729 5.02211 21.09 5.00001H21ZM13.5 8.00001C13.6843 7.99867 13.8626 8.06522 14.0009 8.18695C14.1392 8.30868 14.2279 8.47707 14.25 8.66001V13.25C14.2513 13.4343 14.1848 13.6126 14.0631 13.7509C13.9413 13.8892 13.7729 13.9779 13.59 14H10.5C10.3157 14.0013 10.1374 13.9348 9.99912 13.8131C9.86079 13.6913 9.77211 13.5229 9.75 13.34V8.75001C9.74867 8.56575 9.81522 8.38745 9.93695 8.24912C10.0587 8.11079 10.2271 8.02211 10.41 8.00001H10.5H13.5ZM12.75 9.50001H11.25V12.5H12.75V9.50001ZM15 2.00001H9V3.50001H15V2.00001Z" fill="#222222"/>
</svg>
