<svg width="23" height="23" viewBox="0 0 23 23" fill="none" xmlns="http://www.w3.org/2000/svg">
<path d="M11.5431 19.4273V16.8977L11.3495 16.9647C10.6202 17.2027 9.83872 17.3441 9.03493 17.3739H8.51396C6.35131 17.3193 4.29219 16.4366 2.76178 14.9081C1.23138 13.3796 0.346551 11.322 0.290009 9.16013V8.72117C0.344674 6.558 1.22867 4.49851 2.75927 2.96843C4.28987 1.43835 6.35005 0.554647 8.51396 0.5H8.95307C13.4409 0.61904 17.0579 4.23487 17.1696 8.72117V9.22709C17.1333 10.2617 16.9062 11.2807 16.4998 12.2328L16.403 12.456L22.29 18.3336V22.5H18.1371L15.0633 19.4273H11.5431ZM6.68311 4.59199C6.99661 4.57416 7.31046 4.62051 7.60542 4.72817C7.90039 4.83584 8.17027 5.00256 8.39852 5.21814C8.62678 5.43371 8.80861 5.69359 8.93289 5.98187C9.05716 6.27015 9.12126 6.58075 9.12126 6.89466C9.12126 7.20856 9.05716 7.51917 8.93289 7.80744C8.80861 8.09572 8.62678 8.3556 8.39852 8.57118C8.17027 8.78675 7.90039 8.95347 7.60542 9.06114C7.31046 9.16881 6.99661 9.21515 6.68311 9.19733C6.07121 9.19733 5.48437 8.95433 5.05169 8.5218C4.61901 8.08927 4.37594 7.50263 4.37594 6.89094C4.37594 6.27924 4.61901 5.6926 5.05169 5.26007C5.48437 4.82754 6.07121 4.58454 6.68311 4.58454V4.59199ZM6.68311 6.12462C6.4798 6.12462 6.28482 6.20536 6.14106 6.34907C5.99729 6.49278 5.91653 6.6877 5.91653 6.89094C5.91653 7.09418 5.99729 7.28909 6.14106 7.4328C6.28482 7.57652 6.4798 7.65725 6.68311 7.65725C6.88642 7.65725 7.0814 7.57652 7.22516 7.4328C7.36892 7.28909 7.44968 7.09418 7.44968 6.89094C7.44968 6.6877 7.36892 6.49278 7.22516 6.34907C7.0814 6.20536 6.88642 6.12462 6.68311 6.12462ZM15.7034 17.8947L18.7697 20.9674H20.7569V18.9809L14.5275 12.7536L14.8029 12.2477L14.9219 12.0245C15.3387 11.1689 15.5918 10.224 15.6364 9.21965V8.74349C15.5841 6.98417 14.8616 5.31126 13.6166 4.06668C12.3716 2.82211 10.6981 2.09984 8.93818 2.04751H8.52884C6.76893 2.09984 5.09545 2.82211 3.85046 4.06668C2.60546 5.31126 1.88295 6.98417 1.8306 8.74349V9.14525C1.86316 10.2963 2.18318 11.4209 2.76153 12.4167C3.33988 13.4125 4.1582 14.2479 5.14199 14.8469C6.12577 15.4458 7.24379 15.7893 8.39427 15.846C9.54475 15.9027 10.6911 15.6709 11.7291 15.1716L11.9524 15.0526L13.0836 14.4574V17.8947H15.7034Z" fill="#222222"/>
</svg>
