<svg width="20" height="18" viewBox="0 0 20 18" fill="none" xmlns="http://www.w3.org/2000/svg">
<path d="M19.0688 2.675C18.8141 2.14151 18.415 1.69007 17.9168 1.3719C17.4186 1.05374 16.8411 0.881596 16.25 0.875H3.75C3.15888 0.881596 2.58145 1.05374 2.08322 1.3719C1.58498 1.69007 1.1859 2.14151 0.93125 2.675C0.731957 3.08842 0.627337 3.54106 0.625 4V14C0.625 14.8288 0.95424 15.6237 1.54029 16.2097C1.83047 16.4999 2.17497 16.7301 2.55411 16.8871C2.93326 17.0442 3.33962 17.125 3.75 17.125H16.25C17.0788 17.125 17.8737 16.7958 18.4597 16.2097C19.0458 15.6237 19.375 14.8288 19.375 14V4C19.3727 3.54106 19.268 3.08842 19.0688 2.675ZM3.75 2.125H16.25C16.6495 2.1277 17.0375 2.25921 17.3563 2.5L11.2188 7.75C10.8803 8.04291 10.4476 8.20411 10 8.20411C9.55238 8.20411 9.11973 8.04291 8.78125 7.75L2.64375 2.5C2.96254 2.25921 3.3505 2.1277 3.75 2.125ZM18.125 14C18.125 14.4973 17.9275 14.9742 17.5758 15.3258C17.2242 15.6775 16.7473 15.875 16.25 15.875H3.75C3.25272 15.875 2.77581 15.6775 2.42417 15.3258C2.07254 14.9742 1.875 14.4973 1.875 14V4C1.87629 3.84382 1.89729 3.68842 1.9375 3.5375L7.96875 8.70625C8.53308 9.19402 9.25409 9.46243 10 9.46243C10.7459 9.46243 11.4669 9.19402 12.0312 8.70625L18.0625 3.5375C18.1027 3.68842 18.1237 3.84382 18.125 4V14Z" fill="#222222"/>
</svg>
