<svg width="18" height="21" viewBox="0 0 18 21" fill="none" xmlns="http://www.w3.org/2000/svg">
<path d="M15 17.5C15.7425 17.5 16.4625 17.7625 17.0025 18.25C17.2275 18.4675 17.535 18.5875 17.8575 18.625H18V20.125H17.8275C17.1497 20.0914 16.5039 19.8267 15.9975 19.375C15.7228 19.1309 15.3674 18.9973 15 19C14.625 19 14.265 19.1275 14.0025 19.375C13.4505 19.8637 12.7372 20.1309 12 20.125C11.2628 20.1309 10.5495 19.8637 9.9975 19.375C9.72285 19.1309 9.36744 18.9973 9 19C8.625 19 8.265 19.1275 8.0025 19.375C7.45052 19.8637 6.73721 20.1309 6 20.125C5.26279 20.1309 4.54948 19.8637 3.9975 19.375C3.72285 19.1309 3.36744 18.9973 3 19C2.625 19 2.265 19.1275 2.0025 19.375C1.4961 19.8267 0.850269 20.0914 0.1725 20.125H0V18.625H0.1425C0.460816 18.5968 0.761124 18.4651 0.9975 18.25C1.54948 17.7613 2.26279 17.4941 3 17.5C3.7425 17.5 4.4625 17.7625 5.0025 18.25C5.265 18.4975 5.625 18.625 6 18.625C6.375 18.625 6.735 18.4975 6.9975 18.25C7.54911 17.7607 8.26266 17.4934 9 17.5C9.7425 17.5 10.4625 17.7625 11.0025 18.25C11.265 18.4975 11.625 18.625 12 18.625C12.375 18.625 12.735 18.4975 12.9975 18.25C13.5495 17.7613 14.2628 17.4941 15 17.5ZM15 13.75C15.7425 13.75 16.4625 14.0125 17.0025 14.5C17.2275 14.7175 17.535 14.8375 17.8575 14.875H18V16.375H17.8275C17.1497 16.3414 16.5039 16.0767 15.9975 15.625C15.7228 15.3809 15.3674 15.2473 15 15.25C14.625 15.25 14.265 15.3775 14.0025 15.625C13.4505 16.1137 12.7372 16.3809 12 16.375C11.2628 16.3809 10.5495 16.1137 9.9975 15.625C9.72285 15.3809 9.36744 15.2473 9 15.25C8.625 15.25 8.265 15.3775 8.0025 15.625C7.45052 16.1137 6.73721 16.3809 6 16.375C5.26279 16.3809 4.54948 16.1137 3.9975 15.625C3.72285 15.3809 3.36744 15.2473 3 15.25C2.625 15.25 2.265 15.3775 2.0025 15.625C1.4961 16.0767 0.850269 16.3414 0.1725 16.375H0V14.875H0.1425C0.460816 14.8468 0.761124 14.7151 0.9975 14.5C1.54948 14.0113 2.26279 13.7441 3 13.75C3.7425 13.75 4.4625 14.0125 5.0025 14.5C5.265 14.7475 5.625 14.875 6 14.875C6.375 14.875 6.735 14.7475 6.9975 14.5C7.54911 14.0107 8.26266 13.7434 9 13.75C9.7425 13.75 10.4625 14.0125 11.0025 14.5C11.265 14.7475 11.625 14.875 12 14.875C12.375 14.875 12.735 14.7475 12.9975 14.5C13.5495 14.0113 14.2628 13.7441 15 13.75ZM12 0.250015C12.7703 0.249052 13.5115 0.54445 14.07 1.07501C14.6285 1.60558 14.9615 2.33065 15 3.10002V4.75002H18V6.25002H15V10C15.68 9.99629 16.3412 10.2237 16.875 10.645L17.0025 10.7575C17.2275 10.96 17.535 11.0875 17.8575 11.1175L18 11.125V12.625H17.8275C17.1497 12.5914 16.5039 12.3267 15.9975 11.875C15.7228 11.6309 15.3674 11.4973 15 11.5C14.625 11.5 14.265 11.6275 14.0025 11.875C13.4505 12.3637 12.7372 12.6309 12 12.625C11.2628 12.6309 10.5495 12.3637 9.9975 11.875C9.72285 11.6309 9.36744 11.4973 9 11.5C8.625 11.5 8.265 11.6275 8.0025 11.875C7.45052 12.3637 6.73721 12.6309 6 12.625C5.26279 12.6309 4.54948 12.3637 3.9975 11.875C3.72285 11.6309 3.36744 11.4973 3 11.5C2.625 11.5 2.265 11.6275 2.0025 11.875C1.4961 12.3267 0.850269 12.5914 0.1725 12.625H0V11.125H0.1425C0.460816 11.0968 0.761124 10.9651 0.9975 10.75C1.54948 10.2613 2.26279 9.99415 3 10C3.7425 10 4.4625 10.2625 5.0025 10.75C5.265 10.9975 5.625 11.125 6 11.125C6.375 11.125 6.735 10.9975 6.9975 10.75C7.5039 10.2983 8.14973 10.0336 8.8275 10H9V6.25002H0V4.75002H9V3.25002C9.00739 3.05303 8.9759 2.85652 8.90734 2.67171C8.83879 2.48689 8.7345 2.31739 8.60044 2.17288C8.32968 1.88103 7.95407 1.70868 7.55625 1.69377C7.35927 1.68638 7.16276 1.71786 6.97794 1.78642C6.79313 1.85498 6.62363 1.95927 6.47911 2.09333C6.18726 2.36409 6.01492 2.73969 6 3.13752V3.25002H4.5C4.49935 2.64038 4.68445 2.04501 5.03065 1.54321C5.37684 1.04141 5.8677 0.656989 6.43785 0.441147C7.008 0.225306 7.63037 0.188288 8.22208 0.335025C8.8138 0.481762 9.34676 0.805288 9.75 1.26252C10.0312 0.943121 10.3774 0.687541 10.7655 0.512914C11.1536 0.338288 11.5745 0.248651 12 0.250015ZM10.5 10.39L10.845 10.6225L11.0025 10.7575C11.265 10.99 11.625 11.125 12 11.125C12.3229 11.1294 12.6385 11.0294 12.9 10.84L12.9975 10.7575C13.1475 10.615 13.32 10.495 13.5 10.39V6.25002H10.5V10.39ZM12 1.75002C11.6209 1.74895 11.2555 1.89145 10.9772 2.14886C10.6989 2.40627 10.5284 2.7595 10.5 3.13752V4.75002H13.5V3.25002C13.5 2.85219 13.342 2.47066 13.0607 2.18936C12.7794 1.90805 12.3978 1.75002 12 1.75002Z" fill="#222222"/>
</svg>
