<svg width="24" height="23" viewBox="0 0 24 23" fill="none" xmlns="http://www.w3.org/2000/svg">
<path d="M2.6175 5.0475L3.6975 6.1275C2.74701 7.66672 2.24564 9.44096 2.25 11.25C2.24965 12.9853 2.71247 14.6893 3.59067 16.1861C4.46886 17.6828 5.73062 18.918 7.24567 19.7642C8.76072 20.6104 10.4742 21.0369 12.2091 20.9997C13.9441 20.9625 15.6376 20.4629 17.115 19.5525L18.2025 20.6325C16.3641 21.8525 14.2063 22.5022 12 22.5C9.96789 22.4994 7.97387 21.9484 6.22976 20.9056C4.48566 19.8627 3.05659 18.3669 2.09435 16.577C1.13212 14.7872 0.672658 12.7701 0.76477 10.7401C0.856881 8.71004 1.49713 6.74286 2.6175 5.0475ZM2.7825 0.967501L22.2825 20.4675L21.2175 21.5325L1.7175 2.0325L2.7825 0.967501ZM12 8.1962e-07C14.0328 -0.000774997 16.0277 0.549229 17.7729 1.59155C19.5181 2.63388 20.9482 4.12958 21.9114 5.91968C22.8745 7.70978 23.3346 9.72739 23.2428 11.7581C23.151 13.7887 22.5107 15.7566 21.39 17.4525L20.3025 16.365C21.2516 14.828 21.753 13.0565 21.75 11.25C21.75 8.66414 20.7228 6.18419 18.8943 4.35571C17.0658 2.52723 14.5859 1.5 12 1.5C10.191 1.49565 8.41672 1.99701 6.8775 2.9475L5.805 1.875C7.6404 0.653796 9.79545 0.0015416 12 8.1962e-07ZM8.325 12C8.47198 12.7207 8.82763 13.3822 9.34771 13.9023C9.86779 14.4224 10.5293 14.778 11.25 14.925V16.4475C10.1278 16.2858 9.08819 15.7652 8.28651 14.9635C7.48483 14.1618 6.96421 13.1222 6.8025 12H8.325ZM12.75 15.18L13.7625 16.2C13.4341 16.3161 13.0949 16.399 12.75 16.4475V15.18ZM15.93 12H17.1975C17.145 12.3525 17.0625 12.69 16.9425 13.0125L15.93 12ZM12.75 6.0525C13.8722 6.21421 14.9118 6.73483 15.7135 7.53651C16.5152 8.33819 17.0358 9.37785 17.1975 10.5H15.675C15.528 9.77933 15.1724 9.11779 14.6523 8.59771C14.1322 8.07763 13.4707 7.72198 12.75 7.575V6.0525ZM7.05 9.4875L8.07 10.5H6.8025C6.855 10.1475 6.9375 9.81 7.05 9.4875ZM11.25 6.0525V7.32L10.2375 6.3C10.5659 6.18388 10.9051 6.10096 11.25 6.0525ZM17.25 5.25C17.4489 5.25 17.6397 5.32902 17.7803 5.46967C17.921 5.61032 18 5.80109 18 6C18 6.19891 17.921 6.38968 17.7803 6.53033C17.6397 6.67098 17.4489 6.75 17.25 6.75C17.0511 6.75 16.8603 6.67098 16.7197 6.53033C16.579 6.38968 16.5 6.19891 16.5 6C16.5 5.80109 16.579 5.61032 16.7197 5.46967C16.8603 5.32902 17.0511 5.25 17.25 5.25Z" fill="#222222"/>
</svg>
