<svg width="22" height="22" viewBox="0 0 22 22" fill="none" xmlns="http://www.w3.org/2000/svg">
<path d="M20 0.750006C20.3791 0.748938 20.7445 0.891439 21.0228 1.14885C21.3011 1.40626 21.4716 1.75949 21.5 2.13751V20.25C21.5011 20.6291 21.3586 20.9945 21.1012 21.2728C20.8437 21.5511 20.4905 21.7216 20.1125 21.75H2.00001C1.62093 21.7511 1.2555 21.6086 0.977219 21.3512C0.698936 21.0937 0.528436 20.7405 0.500006 20.3625V2.25001C0.498938 1.87093 0.641439 1.5055 0.898851 1.22722C1.15626 0.948936 1.50949 0.778436 1.88751 0.750006H2.00001H20ZM15.56 15.75H6.44001L2.00001 20.1825V20.25H20V20.1825L15.56 15.75ZM20 2.25001H2.00001V18.06L11 9.06001L20 18.06V2.25001ZM11 11.1825L7.93251 14.25H14.06L11 11.1825ZM15.5 4.50001C16.0967 4.50001 16.669 4.73706 17.091 5.15902C17.513 5.58097 17.75 6.15327 17.75 6.75001C17.75 7.34674 17.513 7.91904 17.091 8.341C16.669 8.76295 16.0967 9.00001 15.5 9.00001C14.9033 9.00001 14.331 8.76295 13.909 8.341C13.4871 7.91904 13.25 7.34674 13.25 6.75001C13.25 6.15327 13.4871 5.58097 13.909 5.15902C14.331 4.73706 14.9033 4.50001 15.5 4.50001ZM15.5 6.00001C15.3011 6.00001 15.1103 6.07902 14.9697 6.21968C14.829 6.36033 14.75 6.55109 14.75 6.75001C14.75 6.94892 14.829 7.13968 14.9697 7.28034C15.1103 7.42099 15.3011 7.50001 15.5 7.50001C15.6989 7.50001 15.8897 7.42099 16.0303 7.28034C16.171 7.13968 16.25 6.94892 16.25 6.75001C16.25 6.55109 16.171 6.36033 16.0303 6.21968C15.8897 6.07902 15.6989 6.00001 15.5 6.00001Z" fill="#222222"/>
</svg>
