<svg width="24" height="20" viewBox="0 0 24 20" fill="none" xmlns="http://www.w3.org/2000/svg">
<path d="M6.75 20V18.5H8.25V17H4.5C3.53338 17.0009 2.60373 16.6286 1.90502 15.9606C1.20632 15.2927 0.792533 14.3807 0.750002 13.415V4.25C0.749066 3.28338 1.12142 2.35373 1.78939 1.65502C2.45735 0.956319 3.36931 0.542533 4.335 0.500002H19.5C20.4666 0.499066 21.3963 0.871425 22.095 1.53939C22.7937 2.20735 23.2075 3.11931 23.25 4.085V13.25C23.2509 14.2166 22.8786 15.1463 22.2106 15.845C21.5427 16.5437 20.6307 16.9575 19.665 17H15.75V18.5H17.25V20H6.75ZM14.25 17H9.75V18.5H14.25V17ZM19.5 2H4.5C3.92593 1.99897 3.37318 2.2174 2.9549 2.61059C2.53662 3.00377 2.28445 3.54197 2.25 4.115V13.25C2.24897 13.8241 2.4674 14.3768 2.86059 14.7951C3.25377 15.2134 3.79197 15.4656 4.365 15.5H19.5C20.0741 15.501 20.6268 15.2826 21.0451 14.8894C21.4634 14.4962 21.7156 13.958 21.75 13.385V4.25C21.751 3.67593 21.5326 3.12318 21.1394 2.7049C20.7462 2.28662 20.208 2.03444 19.635 2H19.5Z" fill="#222222"/>
</svg>
