<svg width="22" height="22" viewBox="0 0 22 22" fill="none" xmlns="http://www.w3.org/2000/svg">
<path d="M0.5375 3.975L2 5.4225V18C1.99897 18.5741 2.2174 19.1268 2.61058 19.5451C3.00377 19.9634 3.54197 20.2156 4.115 20.25H16.82L18.2825 21.7125C18.1625 21.7275 18.035 21.7425 17.9075 21.7425L17.75 21.75H4.25C3.28338 21.7509 2.35373 21.3786 1.65502 20.7106C0.956317 20.0427 0.542531 19.1307 0.5 18.165V4.5C0.5 4.32 0.515 4.14 0.5375 3.975ZM1.7825 0.975002L21.2825 20.475L20.2175 21.525L0.7175 2.025L1.7825 0.975002ZM17.75 0.750002C18.7166 0.749066 19.6463 1.12142 20.345 1.78939C21.0437 2.45735 21.4575 3.36931 21.5 4.335V18C21.4998 18.1757 21.4873 18.3511 21.4625 18.525L20 17.0775V4.5C20.001 3.92593 19.7826 3.37318 19.3894 2.9549C18.9962 2.53662 18.458 2.28445 17.885 2.25H5.18L3.725 0.787502C3.845 0.772502 3.9725 0.757502 4.1 0.757502L4.25 0.750002H17.75ZM7.325 12C7.47198 12.7207 7.82763 13.3822 8.34771 13.9023C8.86779 14.4224 9.52933 14.778 10.25 14.925V16.4475C9.12785 16.2858 8.08819 15.7652 7.28651 14.9635C6.48483 14.1618 5.96421 13.1222 5.8025 12H7.325ZM11.75 15.18L12.7625 16.2C12.4341 16.3161 12.0949 16.399 11.75 16.4475V15.18ZM14.93 12H16.1975C16.145 12.3525 16.0625 12.69 15.9425 13.0125L14.93 12ZM11.75 6.0525C12.8722 6.21421 13.9118 6.73483 14.7135 7.53651C15.5152 8.33819 16.0358 9.37785 16.1975 10.5H14.675C14.528 9.77933 14.1724 9.1178 13.6523 8.59772C13.1322 8.07764 12.4707 7.72198 11.75 7.575V6.0525ZM6.05 9.4875L7.07 10.5H5.8025C5.855 10.1475 5.9375 9.81 6.05 9.4875ZM10.25 6.0525V7.32L9.2375 6.3C9.56588 6.18388 9.90508 6.10097 10.25 6.0525ZM16.25 5.25C16.4489 5.25 16.6397 5.32902 16.7803 5.46967C16.921 5.61032 17 5.80109 17 6C17 6.19891 16.921 6.38968 16.7803 6.53033C16.6397 6.67098 16.4489 6.75 16.25 6.75C16.0511 6.75 15.8603 6.67098 15.7197 6.53033C15.579 6.38968 15.5 6.19891 15.5 6C15.5 5.80109 15.579 5.61032 15.7197 5.46967C15.8603 5.32902 16.0511 5.25 16.25 5.25Z" fill="#222222"/>
</svg>
