<svg width="22" height="19" viewBox="0 0 22 19" fill="none" xmlns="http://www.w3.org/2000/svg">
<path d="M18.5 10.75C18.5 10.9489 18.421 11.1397 18.2803 11.2803C18.1397 11.421 17.9489 11.5 17.75 11.5C17.5511 11.5 17.3603 11.421 17.2197 11.2803C17.079 11.1397 17 10.9489 17 10.75C17 10.5511 17.079 10.3603 17.2197 10.2197C17.3603 10.079 17.5511 10 17.75 10C17.9489 10 18.1397 10.079 18.2803 10.2197C18.421 10.3603 18.5 10.5511 18.5 10.75ZM4.25 10C4.05109 10 3.86032 10.079 3.71967 10.2197C3.57902 10.3603 3.5 10.5511 3.5 10.75C3.5 10.9489 3.57902 11.1397 3.71967 11.2803C3.86032 11.421 4.05109 11.5 4.25 11.5C4.44891 11.5 4.63968 11.421 4.78033 11.2803C4.92098 11.1397 5 10.9489 5 10.75C5 10.5511 4.92098 10.3603 4.78033 10.2197C4.63968 10.079 4.44891 10 4.25 10ZM19.775 6.25L20.0825 7.09C20.5223 7.43729 20.8782 7.87929 21.1236 8.38311C21.369 8.88692 21.4977 9.43959 21.5 10V16.75C21.5 17.1478 21.342 17.5294 21.0607 17.8107C20.7794 18.092 20.3978 18.25 20 18.25H18.5C18.1022 18.25 17.7206 18.092 17.4393 17.8107C17.158 17.5294 17 17.1478 17 16.75V15.25H5V16.75C5 17.1478 4.84196 17.5294 4.56066 17.8107C4.27936 18.092 3.89782 18.25 3.5 18.25H2C1.60218 18.25 1.22064 18.092 0.93934 17.8107C0.658035 17.5294 0.5 17.1478 0.5 16.75V10C0.5 8.8225 1.0625 7.78 1.9175 7.09L2.225 6.25H0.5V4.75H2.75V4.8625L4.115 1.225C4.22182 0.939099 4.41332 0.692585 4.66391 0.518371C4.91451 0.344158 5.21229 0.250534 5.5175 0.25H16.4825C17.105 0.25 17.6675 0.64 17.885 1.225L19.25 4.8625V4.75H21.5V6.25H19.775ZM3.5 15.25H2V16.75H3.5V15.25ZM20 15.25H18.5V16.75H20V15.25ZM20 13.75V10C20 9.40326 19.7629 8.83097 19.341 8.40901C18.919 7.98705 18.3467 7.75 17.75 7.75H4.25C3.65326 7.75 3.08097 7.98705 2.65901 8.40901C2.23705 8.83097 2 9.40326 2 10V13.75H20ZM17.75 6.25H18.17L16.475 1.75H5.5175L3.83 6.25H17.75ZM6.5 11.5H15.5V10H6.5V11.5Z" fill="#222222"/>
</svg>
