<svg width="14" height="14" viewBox="0 0 14 14" fill="none" xmlns="http://www.w3.org/2000/svg">
<path fill-rule="evenodd" clip-rule="evenodd" d="M2 10.9033C2.39782 10.9033 2.77936 11.0614 3.06066 11.3427C3.34196 11.624 3.5 12.0055 3.5 12.4033C3.5 12.8011 3.34196 13.1827 3.06066 13.464C2.77936 13.7453 2.39782 13.9033 2 13.9033C1.60218 13.9033 1.22064 13.7453 0.93934 13.464C0.658035 13.1827 0.5 12.8011 0.5 12.4033C0.5 12.0055 0.658035 11.624 0.93934 11.3427C1.22064 11.0614 1.60218 10.9033 2 10.9033ZM7 10.9033C7.39782 10.9033 7.77936 11.0614 8.06066 11.3427C8.34196 11.624 8.5 12.0055 8.5 12.4033C8.5 12.8011 8.34196 13.1827 8.06066 13.464C7.77936 13.7453 7.39782 13.9033 7 13.9033C6.60218 13.9033 6.22064 13.7453 5.93934 13.464C5.65804 13.1827 5.5 12.8011 5.5 12.4033C5.5 12.0055 5.65804 11.624 5.93934 11.3427C6.22064 11.0614 6.60218 10.9033 7 10.9033ZM12 10.9033C12.3978 10.9033 12.7794 11.0614 13.0607 11.3427C13.342 11.624 13.5 12.0055 13.5 12.4033C13.5 12.8011 13.342 13.1827 13.0607 13.464C12.7794 13.7453 12.3978 13.9033 12 13.9033C11.6022 13.9033 11.2206 13.7453 10.9393 13.464C10.658 13.1827 10.5 12.8011 10.5 12.4033C10.5 12.0055 10.658 11.624 10.9393 11.3427C11.2206 11.0614 11.6022 10.9033 12 10.9033ZM2 5.90332C2.39782 5.90332 2.77936 6.06136 3.06066 6.34266C3.34196 6.62396 3.5 7.0055 3.5 7.40332C3.5 7.80115 3.34196 8.18268 3.06066 8.46398C2.77936 8.74529 2.39782 8.90332 2 8.90332C1.60218 8.90332 1.22064 8.74529 0.93934 8.46398C0.658035 8.18268 0.5 7.80115 0.5 7.40332C0.5 7.0055 0.658035 6.62396 0.93934 6.34266C1.22064 6.06136 1.60218 5.90332 2 5.90332ZM7 5.90332C7.39782 5.90332 7.77936 6.06136 8.06066 6.34266C8.34196 6.62396 8.5 7.0055 8.5 7.40332C8.5 7.80115 8.34196 8.18268 8.06066 8.46398C7.77936 8.74529 7.39782 8.90332 7 8.90332C6.60218 8.90332 6.22064 8.74529 5.93934 8.46398C5.65804 8.18268 5.5 7.80115 5.5 7.40332C5.5 7.0055 5.65804 6.62396 5.93934 6.34266C6.22064 6.06136 6.60218 5.90332 7 5.90332ZM12 5.90332C12.3978 5.90332 12.7794 6.06136 13.0607 6.34266C13.342 6.62396 13.5 7.0055 13.5 7.40332C13.5 7.80115 13.342 8.18268 13.0607 8.46398C12.7794 8.74529 12.3978 8.90332 12 8.90332C11.6022 8.90332 11.2206 8.74529 10.9393 8.46398C10.658 8.18268 10.5 7.80115 10.5 7.40332C10.5 7.0055 10.658 6.62396 10.9393 6.34266C11.2206 6.06136 11.6022 5.90332 12 5.90332ZM2 0.90332C2.39782 0.90332 2.77936 1.06136 3.06066 1.34266C3.34196 1.62396 3.5 2.0055 3.5 2.40332C3.5 2.80115 3.34196 3.18268 3.06066 3.46398C2.77936 3.74529 2.39782 3.90332 2 3.90332C1.60218 3.90332 1.22064 3.74529 0.93934 3.46398C0.658035 3.18268 0.5 2.80115 0.5 2.40332C0.5 2.0055 0.658035 1.62396 0.93934 1.34266C1.22064 1.06136 1.60218 0.90332 2 0.90332ZM7 0.90332C7.39782 0.90332 7.77936 1.06136 8.06066 1.34266C8.34196 1.62396 8.5 2.0055 8.5 2.40332C8.5 2.80115 8.34196 3.18268 8.06066 3.46398C7.77936 3.74529 7.39782 3.90332 7 3.90332C6.60218 3.90332 6.22064 3.74529 5.93934 3.46398C5.65804 3.18268 5.5 2.80115 5.5 2.40332C5.5 2.0055 5.65804 1.62396 5.93934 1.34266C6.22064 1.06136 6.60218 0.90332 7 0.90332ZM12 0.90332C12.3978 0.90332 12.7794 1.06136 13.0607 1.34266C13.342 1.62396 13.5 2.0055 13.5 2.40332C13.5 2.80115 13.342 3.18268 13.0607 3.46398C12.7794 3.74529 12.3978 3.90332 12 3.90332C11.6022 3.90332 11.2206 3.74529 10.9393 3.46398C10.658 3.18268 10.5 2.80115 10.5 2.40332C10.5 2.0055 10.658 1.62396 10.9393 1.34266C11.2206 1.06136 11.6022 0.90332 12 0.90332Z" fill="#222222"/>
</svg>
