<svg width="14" height="13" viewBox="0 0 14 13" fill="none" xmlns="http://www.w3.org/2000/svg">
<path fill-rule="evenodd" clip-rule="evenodd" d="M12.2383 5.27158H3.26666L7.02332 1.51492C7.10929 1.43481 7.17825 1.33821 7.22607 1.23088C7.27389 1.12354 7.29961 1.00768 7.30168 0.890192C7.30375 0.772705 7.28214 0.656004 7.23813 0.547052C7.19413 0.438099 7.12862 0.339126 7.04554 0.256037C6.96245 0.172949 6.86347 0.107447 6.75452 0.0634391C6.64557 0.0194312 6.52887 -0.00218088 6.41138 -0.000107966C6.2939 0.00196495 6.17803 0.0276804 6.0707 0.0755043C5.96336 0.123328 5.86676 0.192281 5.78666 0.278249L0.536658 5.51658C0.3728 5.68064 0.280762 5.90304 0.280762 6.13491C0.280762 6.36679 0.3728 6.58919 0.536658 6.75325L5.78666 12.0032C5.86676 12.0892 5.96336 12.1582 6.0707 12.206C6.17803 12.2538 6.2939 12.2795 6.41138 12.2816C6.52887 12.2837 6.64557 12.2621 6.75452 12.2181C6.86347 12.1741 6.96245 12.1085 7.04554 12.0255C7.12862 11.9424 7.19413 11.8434 7.23813 11.7344C7.28214 11.6255 7.30375 11.5088 7.30168 11.3913C7.29961 11.2738 7.27389 11.158 7.22607 11.0506C7.17825 10.9433 7.10929 10.8467 7.02332 10.7666L3.27832 7.02158H12.2383C12.4704 7.02158 12.6929 6.92939 12.857 6.7653C13.0211 6.60121 13.1133 6.37865 13.1133 6.14658C13.1133 5.91452 13.0211 5.69196 12.857 5.52786C12.6929 5.36377 12.4704 5.27158 12.2383 5.27158Z" fill="#222222"/>
</svg>
