<svg width="8" height="13" viewBox="0 0 8 13" fill="none" xmlns="http://www.w3.org/2000/svg">
<path fill-rule="evenodd" clip-rule="evenodd" d="M0.588209 1.88997C0.526488 1.82781 0.477614 1.7541 0.444378 1.67306C0.411142 1.59201 0.394196 1.50521 0.394505 1.41761C0.394815 1.33002 0.412374 1.24334 0.446182 1.16253C0.47999 1.08172 0.529383 1.00836 0.591542 0.946638C0.653701 0.884917 0.727409 0.836043 0.808456 0.802807C0.889503 0.769571 0.976303 0.752624 1.0639 0.752934C1.1515 0.753243 1.23817 0.770803 1.31898 0.804611C1.39979 0.838419 1.47315 0.887812 1.53488 0.949971L6.86821 6.28331C6.99238 6.40821 7.06207 6.57718 7.06207 6.7533C7.06207 6.92943 6.99238 7.0984 6.86821 7.2233L1.53488 12.5566C1.47315 12.6188 1.39979 12.6682 1.31898 12.702C1.23817 12.7358 1.1515 12.7534 1.0639 12.7537C0.976303 12.754 0.889503 12.737 0.808456 12.7038C0.727409 12.6706 0.653701 12.6217 0.591542 12.56C0.529383 12.4983 0.47999 12.4249 0.446182 12.3441C0.412374 12.2633 0.394814 12.1766 0.394505 12.089C0.394195 12.0014 0.411142 11.9146 0.444378 11.8336C0.477614 11.7525 0.526488 11.6788 0.588209 11.6166L5.44821 6.75664L0.588209 1.88997Z" fill="#222222"/>
</svg>
