<svg width="20" height="17" viewBox="0 0 20 17" fill="none" xmlns="http://www.w3.org/2000/svg">
<path d="M5.625 16.925V15.675H6.875V14.425H3.75C2.94471 14.425 2.17052 14.1141 1.58889 13.5571C1.00725 13.0002 0.663075 12.2402 0.628125 11.4357L0.625 11.3V3.80005C0.625047 2.99476 0.935963 2.22057 1.49291 1.63894C2.04986 1.0573 2.80984 0.713123 3.61438 0.678174L3.75 0.675049H16.25C17.0553 0.675095 17.8295 0.986012 18.4111 1.54296C18.9927 2.09991 19.3369 2.85989 19.3719 3.66442L19.375 3.80005V11.3C19.375 12.1053 19.064 12.8795 18.5071 13.4612C17.9501 14.0428 17.1902 14.387 16.3856 14.4219L16.25 14.425H13.125V15.675H14.375V16.925H5.625ZM11.875 14.425H8.125V15.675H11.875V14.425ZM16.25 1.92505H3.75C3.27174 1.92502 2.81155 2.10775 2.46359 2.43585C2.11562 2.76395 1.90618 3.21262 1.87813 3.69005L1.875 3.80005V11.3C1.87497 11.7783 2.0577 12.2385 2.3858 12.5865C2.7139 12.9344 3.16257 13.1439 3.64 13.1719L3.75 13.175H16.25C16.7283 13.1751 17.1884 12.9923 17.5364 12.6642C17.8844 12.3361 18.0938 11.8875 18.1219 11.41L18.125 11.3V3.80005C18.125 3.32179 17.9423 2.8616 17.6142 2.51364C17.2861 2.16567 16.8374 1.95623 16.36 1.92817L16.25 1.92505Z" fill="#222222"/>
</svg>
