<svg width="32" height="32" viewBox="0 0 32 32" fill="none" xmlns="http://www.w3.org/2000/svg">
<path d="M16.063 0.700012C7.626 0.700012 0.763 7.56301 0.763 16C0.763 24.437 7.626 31.3 16.063 31.3C24.5 31.3 31.363 24.437 31.363 16C31.363 7.56301 24.5 0.700012 16.063 0.700012ZM16.063 28.7C12.042 28.7 8.458 26.816 6.13 23.89C7.75161 21.7682 10.0137 20.2253 12.581 19.49C11.6566 18.9028 10.8954 18.0918 10.3678 17.1321C9.84024 16.1724 9.56343 15.0951 9.563 14C9.563 10.416 12.479 7.50001 16.063 7.50001C19.647 7.50001 22.563 10.416 22.563 14C22.5621 15.0953 22.285 16.1727 21.7573 17.1324C21.2296 18.0922 20.4683 18.9034 19.544 19.491C22.1118 20.2258 24.3744 21.7688 25.996 23.891C23.668 26.816 20.084 28.7 16.063 28.7Z" fill="#717171"/>
</svg>
