<svg width="16" height="16" viewBox="0 0 16 16" fill="none" xmlns="http://www.w3.org/2000/svg">
<path d="M1.24 11.1465H4.54C4.87 12.8465 5.44 14.2865 6.2 15.1765C5.12774 14.9109 4.12728 14.412 3.26993 13.7154C2.41259 13.0188 1.71947 12.1416 1.24 11.1465ZM14.76 11.1465C14.28 12.1412 13.5867 13.018 12.7294 13.7146C11.8721 14.4111 10.872 14.9102 9.8 15.1765C10.6716 13.9884 11.2382 12.6046 11.45 11.1465H14.76ZM9.91 11.1465C9.47 13.1965 8.69 14.6465 8 14.6465C7.31 14.6465 6.53 13.1965 6.09 11.1465H9.91ZM10.15 6.14645C10.2787 7.30957 10.2787 8.48334 10.15 9.64645H5.85C5.72128 8.48334 5.72128 7.30957 5.85 6.14645H10.15ZM15.29 6.14645C15.5653 7.29688 15.5653 8.49603 15.29 9.64645H11.67C11.7821 8.48248 11.7821 7.31043 11.67 6.14645H15.29ZM0.699998 6.14645H4.33C4.21787 7.31043 4.21787 8.48248 4.33 9.64645H0.709998C0.434721 8.49603 0.434721 7.29688 0.709998 6.14645H0.699998ZM9.8 0.616455C10.872 0.8827 11.8721 1.38182 12.7294 2.07834C13.5867 2.77486 14.28 3.65168 14.76 4.64645H11.46C11.14 3.03645 10.61 1.64646 9.91 0.746455L9.8 0.616455ZM6.2 0.616455C5.32876 1.80467 4.76221 3.18842 4.55 4.64645H1.24C1.71396 3.66415 2.39592 2.79671 3.23858 2.10427C4.08125 1.41183 5.06445 0.910984 6.12 0.636455L6.2 0.616455ZM8 1.14646C8.69 1.14646 9.47 2.59645 9.91 4.64645H6.1C6.53 2.59645 7.32 1.14646 8 1.14646Z" fill="#222222"/>
</svg>
